<?xml version="1.0" encoding="utf-8"?>
<!-- Generator: Adobe Illustrator 15.1.0, SVG Export Plug-In . SVG Version: 6.00 Build 0)  -->
<!DOCTYPE svg PUBLIC "-//W3C//DTD SVG 1.1//EN" "http://www.w3.org/Graphics/SVG/1.1/DTD/svg11.dtd">
<svg version="1.1" id="Layer_1" xmlns="http://www.w3.org/2000/svg" xmlns:xlink="http://www.w3.org/1999/xlink" x="0px" y="0px"
	 width="720px" height="720px" viewBox="0 0 720 720" enable-background="new 0 0 720 720" xml:space="preserve">
<title></title>
<g>
	<path fill="#F8DC25" d="M643.932,244.294c-60.581,101.25-157.95,154.631-157.95,154.631s0.45-110.981,61.257-212.231
		c46.969-78.75,116.043-128.25,144.73-146.644c3.303-2.686,8.156-2.185,10.841,1.117c1.436,1.765,2.018,4.073,1.591,6.308
		C701.757,81.338,690.731,165.713,643.932,244.294z"/>
	<path fill="#F5CC1A" d="M623.513,274.726c-49.106,30.094-108.956,41.344-125.1,34.763c-0.75,3.225-1.463,6.394-2.138,9.506l0,0
		c-5.544,24.942-8.987,50.308-10.294,75.825l0,0c0,0.731,0,1.35,0,1.856l0,0c0,0.45,0,0.787,0,1.013v0.563
		C539.474,366.481,586.203,324.512,623.513,274.726z"/>
	<path fill="#515570" d="M704.344,47.363c0.799-4.181-1.942-8.217-6.123-9.016c-2.234-0.427-4.543,0.155-6.308,1.59
		c-34.103,22.146-65.334,48.427-92.981,78.244c14.063,4.725,31.106,12.6,39.881,24.863c11.645,16.2,19.744,46.631,15.02,83.306
		C682.24,170.576,699.403,109.76,704.344,47.363z"/>
	<path fill="#F8DC25" d="M143.307,288.844c92.644,73.125,202.5,88.313,202.5,88.313s-40.275-103.444-132.919-176.625
		c-71.831-56.756-153.956-78.581-187.425-85.556c-4.063-1.267-8.384,1.001-9.65,5.064c-0.645,2.069-0.388,4.315,0.707,6.186
		C30.807,157.163,71.363,232.088,143.307,288.844z"/>
	<path fill="#F5CC1A" d="M311.325,311.851c-30.05,11.133-61.172,19.126-92.869,23.85c40.254,19.826,83.139,33.786,127.35,41.457
		C336.23,354.429,324.693,332.577,311.325,311.851z"/>
	<path fill="#515570" d="M16.519,126.338c-2.15-3.673-0.915-8.394,2.758-10.543c1.871-1.095,4.117-1.352,6.186-0.707
		c39.772,8.542,78.334,21.976,114.806,39.994c-11.25,9.394-24.581,22.837-28.462,37.406c-5.119,19.293-1.856,50.625,15.581,83.193
		C80.998,233.651,43.327,182.907,16.519,126.338z"/>
	<path fill="#F8DC25" d="M614.344,485.325c5.625,71.551-24.188,83.588-138.318,91.52c-114.131,7.931-269.212,8.719-275.006-62.832
		c-8.606-105.355,77.006-196.875,191.25-205.087C506.513,300.713,605.738,379.97,614.344,485.325z"/>
	<path fill="#F6CF1C" d="M614.344,485.325c-0.598-7.199-1.631-14.356-3.094-21.431c-0.956,49.669-39.375,63.618-142.313,80.212
		c-79.537,12.825-177.975,24.02-241.312,9.338c50.175,31.331,161.156,29.475,248.343,23.456
		C590.101,569.194,620.138,556.876,614.344,485.325z"/>
	<path fill="#F85565" d="M243.882,454.332c-14.542-0.055-28.726,4.516-40.5,13.05c-2.843,15.371-3.638,31.052-2.363,46.631
		c2.363,29.25,29.756,46.406,69.075,55.913c23.218-8.618,38.825-30.534,39.375-55.294
		C309.244,481.332,279.994,454.332,243.882,454.332z"/>
	<path fill="#515570" d="M461.625,484.145c0,0-5.287,14.737-26.774,14.737s-27.169-14.737-27.169-14.737
		s-5.625,14.737-27.169,14.737s-26.774-14.737-26.774-14.737"/>
	<path fill="#D25061" d="M270.094,569.926c6.076-2.414,11.762-5.713,16.875-9.788c-19.934-0.292-39.791-2.534-59.288-6.693
		C240.87,561.123,255.182,566.685,270.094,569.926z"/>
	<path fill="#515570" d="M405.15,469.52l-14.85-15.244c-2.175-2.219-2.14-5.779,0.079-7.954c1.06-1.039,2.486-1.617,3.971-1.608
		h30.206c3.106-0.019,5.64,2.484,5.659,5.591c0.009,1.54-0.613,3.016-1.722,4.084l-15.188,15.244
		c-2.17,2.223-5.731,2.266-7.954,0.095C405.283,469.659,405.216,469.59,405.15,469.52z"/>
	<path fill="#F85565" d="M506.119,514.688c0.501,24.406,15.669,46.103,38.419,54.956c57.938-9.956,74.193-30.038,69.75-84.375
		c-0.5-6.056-1.307-12.083-2.419-18.057c-11.757-8.472-25.896-13.001-40.388-12.938
		C535.369,454.332,506.119,481.332,506.119,514.688z"/>
	<path fill="#D25061" d="M614.344,485.325c-0.499-6.056-1.307-12.082-2.418-18.056l-0.788-0.563
		c-2.024,40.106-30.318,56.25-100.462,69.975c6.567,14.923,18.665,26.718,33.75,32.906
		C602.476,559.632,618.731,539.606,614.344,485.325z"/>
	<circle fill="#515570" cx="483.619" cy="425.757" r="28.125"/>
	<circle fill="#FFFFFF" cx="475.182" cy="417.319" r="8.438"/>
	<circle fill="#515570" cx="331.744" cy="425.757" r="28.125"/>
	<circle fill="#FFFFFF" cx="323.307" cy="417.319" r="8.438"/>
	<path fill="#515570" d="M434.851,498.882c-21.544,0-27.169-14.737-27.169-14.737s-5.625,14.737-27.169,14.737
		c-2.204,0.009-4.404-0.16-6.581-0.506c0,1.068,0,2.193,0,3.318c0,18.619,15.131,28.125,33.75,28.125s33.75-9.506,33.75-28.125
		c0-1.125,0-2.25,0-3.318C439.255,498.722,437.055,498.891,434.851,498.882z"/>
	<path fill="#F85565" d="M385.182,523.688c6.726,4.23,14.558,6.364,22.5,6.131c15.188,0,28.125-6.3,32.287-18.787
		c-6.896-5.079-15.288-7.712-23.85-7.481C399.301,503.551,385.632,512.551,385.182,523.688z"/>
	<path fill="#F2BC0F" d="M391.145,136.069l-24.976,73.575c-1.394,4.152,0.842,8.649,4.995,10.043
		c1.326,0.445,2.747,0.532,4.117,0.25l17.551-3.6l2.137,35.719c0.067,2.174,1.884,3.881,4.058,3.814
		c1.692-0.053,3.161-1.181,3.649-2.802l24.355-72c1.395-4.152-0.842-8.649-4.994-10.043c-1.326-0.445-2.747-0.532-4.118-0.251
		l-17.55,3.6c0,0-0.675-21.206-1.519-37.519c-0.172-2.168-2.069-3.786-4.236-3.614C392.982,133.372,391.601,134.498,391.145,136.069
		z"/>
</g>
<g>
	<g>
		<g>
			<path fill="#D25061" d="M107.173,600.064c-0.483,0.834-1.147,2.096-1.992,3.785c-0.266,0.783-0.737,1.895-1.413,3.332
				c-0.145,0.229-0.338,0.342-0.58,0.342c0.024,0-1.141-0.449-3.495-1.344c-2.354-0.896-4.292-1.346-5.813-1.346
				c-4.443,0-6.665,2.045-6.665,6.135c0,2.271,1.557,4.252,4.672,5.943c5.239,2.852,8.137,4.492,8.692,4.922
				c3.115,2.6,4.672,6.107,4.672,10.523c0,5.654-2.137,10.107-6.411,13.363c-3.839,2.93-8.561,4.393-14.162,4.393
				c-2.607,0-4.008-0.303-4.201-0.908c-0.097-0.959-0.314-2.359-0.652-4.203c-0.194-0.758-0.496-1.893-0.906-3.406
				c-0.072-0.229-0.108-0.441-0.108-0.645c0-0.354,0.181-0.529,0.543-0.529c0.58,0,1.467,0.063,2.662,0.189
				c1.195,0.127,2.095,0.189,2.699,0.189c7.485,0,11.228-2.523,11.228-7.572c0-2.473-1.509-4.619-4.528-6.436
				c-5.505-3.281-8.318-4.984-8.439-5.111c-3.042-2.574-4.563-6.031-4.563-10.373c0-4.695,1.472-8.455,4.418-11.281
				c2.874-2.727,6.592-4.09,11.156-4.09c1.932,0,4.153,0.328,6.665,0.984c2.728,0.732,4.781,1.615,6.157,2.65
				C106.932,599.674,107.052,599.838,107.173,600.064z"/>
			<path fill="#D25061" d="M122.748,648.561c0,0.531-0.35,0.795-1.05,0.795c-0.435,0-1.099-0.037-1.992-0.113
				c-0.894-0.076-1.557-0.113-1.992-0.113c-0.459,0-1.135,0.037-2.028,0.113c-0.894,0.076-1.558,0.113-1.992,0.113
				c-0.604,0-0.906-0.289-0.906-0.871c0-2.877,0.127-7.211,0.38-13.004c0.254-5.791,0.38-10.139,0.38-13.041
				c0-2.803-0.126-7.01-0.38-12.627c-0.253-5.615-0.38-9.824-0.38-12.625c0-0.631,0.277-0.947,0.833-0.947
				c0.458,0,1.159,0.039,2.101,0.115c0.941,0.074,1.654,0.113,2.137,0.113c0.435,0,1.087-0.039,1.956-0.113
				c0.869-0.076,1.521-0.115,1.956-0.115c0.627,0,0.941,0.254,0.941,0.758c0,2.826-0.097,7.066-0.29,12.721
				c-0.194,5.654-0.29,9.895-0.29,12.721c0,2.902,0.103,7.256,0.308,13.061C122.645,641.305,122.748,645.658,122.748,648.561z"/>
			<path fill="#D25061" d="M181.278,648.41c0,0.631-0.302,0.945-0.905,0.945c-0.435,0-1.093-0.037-1.974-0.113
				c-0.882-0.076-1.54-0.113-1.974-0.113s-1.099,0.037-1.992,0.113c-0.894,0.076-1.558,0.113-1.992,0.113
				c-0.604,0-0.906-0.416-0.906-1.248c0-3.205,0.096-8.014,0.29-14.424c0.193-6.412,0.29-11.219,0.29-14.426
				c0-0.479-0.097-0.719-0.29-0.719c-0.217,0-0.387,0.139-0.507,0.416c-1.231,2.752-4.141,10.096-8.729,22.035
				c-0.749,2.297-1.823,5.16-3.223,8.594c-0.169,0.326-1.039,0.492-2.608,0.492c-2.27,0-3.526-0.215-3.767-0.645
				c-0.821-2.045-1.992-4.908-3.513-8.594c-2.004-4.998-5.083-12.441-9.236-22.336c-0.072-0.176-0.23-0.354-0.471-0.531
				c-0.194,0.152-0.29,0.43-0.29,0.834c0,3.256,0.054,8.139,0.163,14.65s0.163,11.396,0.163,14.652c0,0.832-0.302,1.248-0.906,1.248
				c-0.411,0-1.038-0.037-1.883-0.113s-1.473-0.113-1.883-0.113c-0.435,0-1.081,0.037-1.938,0.113
				c-0.857,0.076-1.503,0.113-1.938,0.113c-0.604,0-0.906-0.238-0.906-0.719c0-2.801,0.127-6.998,0.38-12.588
				c0.254-5.59,0.38-9.787,0.38-12.588c0-2.902-0.126-7.262-0.38-13.08c-0.253-5.816-0.38-10.178-0.38-13.08
				c0-0.479,0.277-0.758,0.833-0.832c3.283-0.455,5.759-0.682,7.425-0.682c0.241,0,0.58,0.518,1.014,1.553
				c5.843,13.426,10.866,25.414,15.067,35.965c0.99,2.473,1.581,3.709,1.774,3.709c0.241,0,0.761-1.008,1.558-3.027
				c3.284-8.178,7.835-20.318,13.655-36.42c0.362-0.984,0.761-1.477,1.195-1.477c0.821,0,2.058,0.051,3.712,0.15
				c1.654,0.102,2.892,0.152,3.712,0.152c0.604,0,0.906,0.303,0.906,0.908c0,2.902-0.091,7.264-0.272,13.08
				c-0.181,5.818-0.271,10.178-0.271,13.08c0,2.777,0.103,6.941,0.308,12.494C181.175,641.508,181.278,645.658,181.278,648.41z"/>
			<path fill="#D25061" d="M229.994,615.852c0,5.932-1.534,10.676-4.6,14.234c-3.164,3.66-7.546,5.49-13.147,5.49
				c-1.376,0-3.459-0.057-6.248-0.172c-2.789-0.113-4.884-0.17-6.284-0.17c-0.773,0-1.159,0.518-1.159,1.553
				c0,1.338,0.078,3.344,0.235,6.02c0.157,2.676,0.235,4.682,0.235,6.02c0,0.43-0.23,0.643-0.688,0.643
				c-0.507,0-1.274-0.057-2.3-0.17c-1.026-0.113-1.793-0.17-2.3-0.17c-0.435,0-1.075,0.037-1.92,0.113s-1.473,0.113-1.883,0.113
				c-0.604,0-0.905-0.391-0.905-1.174c0-2.75,0.114-6.902,0.344-12.455c0.229-5.551,0.344-9.717,0.344-12.492
				c0-7.875-0.278-16.33-0.833-25.365l-0.036-0.568c-0.024-0.555,0.29-0.832,0.942-0.832c1.304,0,3.265,0.012,5.885,0.037
				s4.594,0.037,5.922,0.037c1.135,0,2.837-0.049,5.107-0.15s3.972-0.152,5.107-0.152c5.336,0,9.718,1.895,13.147,5.68
				C228.315,605.629,229.994,610.273,229.994,615.852z M220.866,616.42c0-3.787-0.978-6.814-2.934-9.086
				c-2.028-2.373-4.83-3.559-8.403-3.559c-1.111,0-3.091,0.1-5.94,0.303c-3.26,0.201-4.938,0.404-5.034,0.605
				c-0.169,0.303-0.254,4.645-0.254,13.023c0,1.061,0.03,2.65,0.091,4.77c0.06,2.121,0.09,3.711,0.09,4.77
				c0,0.229,0.266,0.404,0.797,0.531c1.328,0.277,5.01,0.416,11.047,0.416c3.38,0,6.013-1.098,7.896-3.293
				C219.984,622.805,220.866,619.979,220.866,616.42z"/>
			<path fill="#D25061" d="M269.4,641.141c0,3.533-0.181,6.045-0.543,7.533c-0.169,0.732-0.592,1.098-1.268,1.098
				c-1.787,0-4.467-0.107-8.041-0.32c-3.574-0.215-6.254-0.322-8.041-0.322c-1.69,0-4.214,0.037-7.57,0.113
				c-3.356,0.076-5.88,0.113-7.57,0.113c-0.604,0-0.905-0.314-0.905-0.945c0-2.752,0.09-6.902,0.271-12.455
				s0.271-9.717,0.271-12.494c0-2.928-0.126-7.313-0.38-13.156c-0.253-5.842-0.38-10.227-0.38-13.154
				c0-0.555,0.302-0.834,0.906-0.834c0.435,0,1.099,0.039,1.992,0.113c0.893,0.076,1.569,0.113,2.028,0.113
				c0.435,0,1.11-0.037,2.028-0.113c0.917-0.074,1.593-0.113,2.028-0.113c0.579,0,0.869,0.24,0.869,0.719
				c0,2.676-0.097,6.701-0.29,12.078c-0.193,5.375-0.29,9.414-0.29,12.113c0,1.313,0,3.307,0,5.982
				c-0.024,2.676-0.036,4.67-0.036,5.982c0,5.602,0.217,8.404,0.652,8.404c8.91,0,15.634-0.229,20.174-0.682
				c0.217-0.025,0.772-0.113,1.666-0.266c0.725-0.15,1.28-0.227,1.666-0.227C269.147,640.422,269.4,640.662,269.4,641.141z"/>
			<path fill="#D25061" d="M307.902,641.746c0,0.404-0.097,0.984-0.29,1.742c-0.217,0.959-0.35,1.539-0.398,1.74
				c-0.072,0.91-0.242,2.234-0.507,3.977c-0.121,0.453-0.435,0.682-0.942,0.682c-0.242,0-0.701-0.051-1.376-0.152
				c-2.97-0.455-7.57-0.682-13.799-0.682c-1.763,0-4.419,0.051-7.968,0.152c-3.55,0.102-6.206,0.15-7.968,0.15
				c-0.797,0-1.195-0.365-1.195-1.098c0-2.826,0.15-7.072,0.453-12.738c0.302-5.666,0.453-9.912,0.453-12.74
				c0-2.877-0.145-8.24-0.435-16.09c-0.049-2.018-0.181-5.035-0.398-9.047l-0.036-0.531c-0.024-0.58,0.29-0.871,0.942-0.871
				c1.689,0,4.225,0.051,7.606,0.152c3.38,0.102,5.916,0.15,7.606,0.15c1.618,0,4.039-0.049,7.262-0.15s5.644-0.152,7.262-0.152
				c1.135,0,1.75,0.367,1.847,1.1c0.507,3.33,0.761,5.4,0.761,6.207c0,0.582-0.266,0.871-0.797,0.871
				c-2.053,0-5.161-0.119-9.327-0.359c-4.165-0.24-7.298-0.359-9.399-0.359c-1.98,0-3.229,0.277-3.749,0.832
				c-0.52,0.557-0.779,1.932-0.779,4.127v5.641c0,1.541,0.036,2.436,0.109,2.688c0.217,0.783,0.845,1.174,1.883,1.174
				c0.29,0,0.7-0.012,1.231-0.037c0.555,0,0.965,0,1.231,0c4.732,0,8.982-0.088,12.75-0.266c1.472-0.049,3.211-0.176,5.215-0.379
				c0.507-0.049,0.761,0.178,0.761,0.682c0,0.809-0.091,2.045-0.271,3.711c-0.181,1.666-0.272,2.914-0.272,3.748
				c0,0.453-0.362,0.682-1.086,0.682c-0.29,0-1.365-0.088-3.224-0.266c-1.353-0.15-4.395-0.227-9.127-0.227
				c-3.984,0-6.507,0.051-7.57,0.15c-0.966,0.076-1.521,0.605-1.666,1.59c0.024-0.176,0.036,0.795,0.036,2.916v5.604
				c0,2.625,0.386,4.266,1.159,4.922c0.603,0.529,2.113,0.795,4.527,0.795l3.984-0.039c1.689,0,6.435-0.303,14.234-0.908
				l0.543-0.037C307.66,640.75,307.902,641.064,307.902,641.746z"/>
			<path fill="#D25061" d="M373.098,615.852c0,5.932-1.535,10.676-4.602,14.234c-3.162,3.66-7.545,5.49-13.146,5.49
				c-1.376,0-3.459-0.057-6.248-0.172c-2.789-0.113-4.884-0.17-6.284-0.17c-0.773,0-1.159,0.518-1.159,1.553
				c0,1.338,0.078,3.344,0.235,6.02c0.157,2.676,0.235,4.682,0.235,6.02c0,0.43-0.23,0.643-0.688,0.643
				c-0.507,0-1.274-0.057-2.3-0.17c-1.026-0.113-1.793-0.17-2.3-0.17c-0.435,0-1.075,0.037-1.92,0.113s-1.473,0.113-1.883,0.113
				c-0.604,0-0.905-0.391-0.905-1.174c0-2.75,0.114-6.902,0.344-12.455c0.229-5.551,0.344-9.717,0.344-12.492
				c0-7.875-0.278-16.33-0.833-25.365l-0.036-0.568c-0.024-0.555,0.29-0.832,0.942-0.832c1.304,0,3.265,0.012,5.885,0.037
				s4.594,0.037,5.922,0.037c1.135,0,2.837-0.049,5.107-0.15s3.972-0.152,5.107-0.152c5.336,0,9.718,1.895,13.147,5.68
				C371.418,605.629,373.098,610.273,373.098,615.852z M363.969,616.42c0-3.787-0.977-6.814-2.933-9.086
				c-2.028-2.373-4.83-3.559-8.403-3.559c-1.111,0-3.091,0.1-5.94,0.303c-3.26,0.201-4.938,0.404-5.034,0.605
				c-0.169,0.303-0.254,4.645-0.254,13.023c0,1.061,0.03,2.65,0.091,4.77c0.06,2.121,0.09,3.711,0.09,4.77
				c0,0.229,0.266,0.404,0.797,0.531c1.328,0.277,5.01,0.416,11.047,0.416c3.381,0,6.013-1.098,7.896-3.293
				C363.088,622.805,363.969,619.979,363.969,616.42z"/>
			<path fill="#D25061" d="M426.195,622.779c0,7.496-2.295,13.945-6.883,19.346c-4.781,5.604-10.721,8.404-17.82,8.404
				c-7.123,0-13.063-2.789-17.82-8.367c-4.588-5.375-6.881-11.836-6.881-19.383c0-7.471,2.318-13.918,6.953-19.346
				c4.781-5.627,10.697-8.441,17.748-8.441c7.074,0,13.004,2.814,17.785,8.441C423.889,608.836,426.195,615.283,426.195,622.779z
				 M417.465,622.666c0-4.947-1.473-9.25-4.418-12.91c-3.092-3.887-6.967-5.83-11.627-5.83c-4.611,0-8.451,1.969-11.518,5.906
				c-2.898,3.686-4.346,8.002-4.346,12.947c0,4.922,1.447,9.225,4.346,12.91c3.066,3.938,6.906,5.906,11.518,5.906
				c4.684,0,8.572-1.969,11.662-5.906C416.004,632.004,417.465,627.664,417.465,622.666z"/>
			<path fill="#D25061" d="M472.23,647.576c0,1.188-0.352,1.779-1.051,1.779h-8.33c-0.701,0-2.525-2.688-5.471-8.063
				c-2.486-4.543-4.141-7.824-4.961-9.844c-0.822-1.943-1.293-3.029-1.414-3.256c-0.723-1.262-1.568-1.932-2.535-2.006
				c-0.289-0.025-1.098-0.039-2.426-0.039c-3.043,0-4.564,0.393-4.564,1.174c0,2.322,0.078,5.793,0.236,10.412
				c0.156,4.617,0.234,8.076,0.234,10.373c0,0.832-0.301,1.248-0.904,1.248c-0.459,0-1.148-0.037-2.064-0.113
				c-0.918-0.076-1.607-0.113-2.064-0.113c-0.436,0-1.082,0.037-1.938,0.113c-0.857,0.076-1.504,0.113-1.939,0.113
				c-0.604,0-0.904-0.289-0.904-0.871c0-2.775,0.127-6.945,0.381-12.512c0.252-5.564,0.379-9.734,0.379-12.512
				c0-2.928-0.127-7.326-0.379-13.193c-0.254-5.867-0.381-10.266-0.381-13.193c0-0.555,0.301-0.834,0.904-0.834
				c0.436,0,1.1,0.039,1.992,0.115c0.895,0.074,1.57,0.113,2.029,0.113c0.434,0,1.086-0.039,1.955-0.113
				c0.869-0.076,1.521-0.115,1.957-0.115c0.555,0,0.832,0.229,0.832,0.682c0,2.146-0.066,5.377-0.199,9.691
				c-0.133,4.316-0.199,7.561-0.199,9.73c0,0.984,0.061,1.604,0.182,1.855c0.193,0.453,0.688,0.682,1.484,0.682
				c4.686,0,8.113-0.91,10.287-2.727c1.859-1.615,3.621-4.58,5.287-8.896c1.207-3.383,2.414-6.764,3.623-10.146
				c0.168-0.428,0.543-0.719,1.123-0.871c0.385-0.1,1.666-0.15,3.838-0.15c2.656,0,3.984,0.391,3.984,1.174
				c0,0.453-0.555,2.498-1.666,6.133c-1.303,4.24-2.994,7.975-5.07,11.205c-1.377,2.197-3.199,4.404-5.469,6.625
				c-0.58,0.531-0.869,1.01-0.869,1.439c0,0.455,0.977,2.713,2.934,6.777c1.689,3.508,3.223,6.322,4.6,8.441
				c1.521,1.943,3.646,4.936,6.375,8.973C472.17,647.084,472.23,647.324,472.23,647.576z"/>
			<path fill="#D25061" d="M510.658,641.746c0,0.404-0.098,0.984-0.289,1.742c-0.219,0.959-0.352,1.539-0.398,1.74
				c-0.074,0.91-0.242,2.234-0.508,3.977c-0.121,0.453-0.436,0.682-0.941,0.682c-0.242,0-0.701-0.051-1.377-0.152
				c-2.971-0.455-7.57-0.682-13.799-0.682c-1.764,0-4.42,0.051-7.969,0.152s-6.207,0.15-7.969,0.15
				c-0.797,0-1.195-0.365-1.195-1.098c0-2.826,0.15-7.072,0.453-12.738c0.301-5.666,0.453-9.912,0.453-12.74
				c0-2.877-0.145-8.24-0.436-16.09c-0.049-2.018-0.18-5.035-0.398-9.047l-0.035-0.531c-0.025-0.58,0.289-0.871,0.941-0.871
				c1.689,0,4.225,0.051,7.605,0.152s5.916,0.15,7.607,0.15c1.617,0,4.037-0.049,7.262-0.15c3.223-0.102,5.643-0.152,7.262-0.152
				c1.135,0,1.75,0.367,1.848,1.1c0.506,3.33,0.76,5.4,0.76,6.207c0,0.582-0.266,0.871-0.797,0.871
				c-2.053,0-5.162-0.119-9.326-0.359c-4.166-0.24-7.299-0.359-9.398-0.359c-1.98,0-3.23,0.277-3.75,0.832
				c-0.52,0.557-0.777,1.932-0.777,4.127v5.641c0,1.541,0.035,2.436,0.107,2.688c0.217,0.783,0.846,1.174,1.883,1.174
				c0.291,0,0.701-0.012,1.232-0.037c0.555,0,0.965,0,1.232,0c4.73,0,8.982-0.088,12.748-0.266c1.473-0.049,3.211-0.176,5.217-0.379
				c0.506-0.049,0.76,0.178,0.76,0.682c0,0.809-0.09,2.045-0.271,3.711s-0.271,2.914-0.271,3.748c0,0.453-0.363,0.682-1.088,0.682
				c-0.289,0-1.363-0.088-3.223-0.266c-1.354-0.15-4.395-0.227-9.127-0.227c-3.984,0-6.508,0.051-7.57,0.15
				c-0.967,0.076-1.521,0.605-1.666,1.59c0.023-0.176,0.037,0.795,0.037,2.916v5.604c0,2.625,0.385,4.266,1.158,4.922
				c0.604,0.529,2.113,0.795,4.527,0.795l3.984-0.039c1.689,0,6.434-0.303,14.234-0.908l0.543-0.037
				C510.416,640.75,510.658,641.064,510.658,641.746z"/>
			<path fill="#D25061" d="M567.197,648.41c0,0.631-0.303,0.945-0.906,0.945c-0.434,0-1.092-0.037-1.973-0.113
				c-0.883-0.076-1.541-0.113-1.975-0.113c-0.436,0-1.1,0.037-1.992,0.113c-0.895,0.076-1.559,0.113-1.992,0.113
				c-0.604,0-0.906-0.416-0.906-1.248c0-3.205,0.098-8.014,0.291-14.424c0.193-6.412,0.289-11.219,0.289-14.426
				c0-0.479-0.096-0.719-0.289-0.719c-0.219,0-0.387,0.139-0.508,0.416c-1.23,2.752-4.141,10.096-8.729,22.035
				c-0.748,2.297-1.824,5.16-3.225,8.594c-0.168,0.326-1.037,0.492-2.607,0.492c-2.27,0-3.525-0.215-3.766-0.645
				c-0.822-2.045-1.992-4.908-3.514-8.594c-2.006-4.998-5.084-12.441-9.236-22.336c-0.072-0.176-0.23-0.354-0.471-0.531
				c-0.193,0.152-0.289,0.43-0.289,0.834c0,3.256,0.053,8.139,0.162,14.65s0.162,11.396,0.162,14.652
				c0,0.832-0.301,1.248-0.904,1.248c-0.412,0-1.039-0.037-1.883-0.113c-0.846-0.076-1.475-0.113-1.885-0.113
				c-0.434,0-1.08,0.037-1.938,0.113s-1.502,0.113-1.938,0.113c-0.604,0-0.906-0.238-0.906-0.719c0-2.801,0.127-6.998,0.381-12.588
				s0.381-9.787,0.381-12.588c0-2.902-0.127-7.262-0.381-13.08c-0.254-5.816-0.381-10.178-0.381-13.08
				c0-0.479,0.277-0.758,0.834-0.832c3.283-0.455,5.758-0.682,7.424-0.682c0.242,0,0.58,0.518,1.016,1.553
				c5.842,13.426,10.865,25.414,15.066,35.965c0.99,2.473,1.582,3.709,1.775,3.709c0.24,0,0.76-1.008,1.557-3.027
				c3.283-8.178,7.836-20.318,13.656-36.42c0.361-0.984,0.76-1.477,1.193-1.477c0.822,0,2.059,0.051,3.713,0.15
				c1.654,0.102,2.893,0.152,3.713,0.152c0.604,0,0.906,0.303,0.906,0.908c0,2.902-0.092,7.264-0.271,13.08
				c-0.182,5.818-0.271,10.178-0.271,13.08c0,2.777,0.102,6.941,0.307,12.494S567.197,645.658,567.197,648.41z"/>
			<path fill="#D25061" d="M622.723,622.779c0,7.496-2.295,13.945-6.883,19.346c-4.781,5.604-10.721,8.404-17.82,8.404
				c-7.123,0-13.063-2.789-17.82-8.367c-4.588-5.375-6.881-11.836-6.881-19.383c0-7.471,2.318-13.918,6.953-19.346
				c4.781-5.627,10.697-8.441,17.748-8.441c7.074,0,13.004,2.814,17.785,8.441C620.416,608.836,622.723,615.283,622.723,622.779z
				 M613.992,622.666c0-4.947-1.473-9.25-4.418-12.91c-3.092-3.887-6.967-5.83-11.627-5.83c-4.611,0-8.451,1.969-11.518,5.906
				c-2.898,3.686-4.346,8.002-4.346,12.947c0,4.922,1.447,9.225,4.346,12.91c3.066,3.938,6.906,5.906,11.518,5.906
				c4.684,0,8.572-1.969,11.662-5.906C612.531,632.004,613.992,627.664,613.992,622.666z"/>
			<path fill="#D25061" d="M674.227,597.074c0,2.902-0.098,7.281-0.291,13.137s-0.289,10.246-0.289,13.174
				c0,2.752,0.023,6.871,0.072,12.361s0.072,9.609,0.072,12.361c0,0.832-0.303,1.248-0.904,1.248c-0.363,0-0.906-0.037-1.631-0.113
				s-1.268-0.113-1.629-0.113c-0.387,0-0.979,0.037-1.775,0.113s-1.389,0.113-1.775,0.113c-0.434,0-0.953-0.416-1.557-1.248
				c-5.217-7.346-13.125-18.299-23.725-32.861c-1.643-2.221-2.596-3.457-2.861-3.711c-0.24,0-0.361,0.518-0.361,1.553
				c0,3.887,0.061,9.723,0.182,17.51c0.119,7.785,0.18,13.623,0.18,17.51c0,0.832-0.24,1.248-0.725,1.248
				c-0.41,0-1.037-0.037-1.883-0.113s-1.473-0.113-1.883-0.113c-0.436,0-1.082,0.037-1.938,0.113
				c-0.857,0.076-1.504,0.113-1.939,0.113c-0.604,0-0.904-0.252-0.904-0.756c0-2.777,0.127-6.961,0.381-12.551
				c0.252-5.59,0.379-9.787,0.379-12.588c0-3.053-0.107-8.557-0.326-16.506c-0.049-2.07-0.168-5.174-0.361-9.313l-0.037-0.492
				c-0.023-0.379,0.266-0.58,0.869-0.607c1.57-0.023,2.801-0.074,3.695-0.15c0.338-0.025,0.979-0.127,1.92-0.303
				c0.797-0.152,1.424-0.227,1.883-0.227c0.217,0,0.592,0.365,1.123,1.098c5.553,7.975,14.053,19.838,25.498,35.586
				c0.508,0.656,0.979,1.225,1.414,1.703c0.168-1.059,0.252-3.482,0.252-7.268c0-3.281-0.113-8.203-0.344-14.766
				c-0.229-6.561-0.344-11.471-0.344-14.727c0-0.832,0.24-1.25,0.725-1.25c0.434,0,1.092,0.039,1.975,0.115
				c0.881,0.074,1.539,0.113,1.973,0.113c0.459,0,1.146-0.039,2.064-0.113c0.918-0.076,1.605-0.115,2.064-0.115
				C673.973,596.24,674.227,596.52,674.227,597.074z"/>
			<path fill="#D25061" d="M290.009,679.916c0,0.104-1.244,2.887-3.732,8.348c-0.833,1.898-2.109,4.734-3.826,8.506
				c-0.162,0.35-0.33,0.525-0.504,0.525h-3.359c-0.236,0-0.429-0.176-0.578-0.525c-0.921-2.264-2.246-5.826-3.975-10.689
				c-0.858,2.393-2.196,5.955-4.013,10.689c-0.137,0.35-0.324,0.525-0.56,0.525h-3.341c-0.187,0-0.361-0.176-0.522-0.525
				c-0.858-1.887-2.146-4.721-3.863-8.506c-2.376-5.176-3.564-7.959-3.564-8.348c0-1.066,0.031-2.674,0.094-4.818
				c0.062-2.146,0.093-3.752,0.093-4.818c0-0.234,0.155-0.352,0.466-0.352c0.224,0,0.563,0.02,1.017,0.059s0.793,0.059,1.017,0.059
				c0.211,0,0.529-0.014,0.952-0.039s0.74-0.039,0.952-0.039c0.261,0,0.392,0.098,0.392,0.293c0,1.053-0.059,2.643-0.177,4.77
				c-0.118,2.125-0.177,3.715-0.177,4.77c0,0.662,1.256,3.666,3.77,9.012c0.833,1.768,1.288,2.652,1.362,2.652
				c0.024-0.014,0.056-0.059,0.093-0.137c0.149-0.299,0.466-1.131,0.952-2.496c0.896-2.537,1.816-5.416,2.762-8.643
				c0.037-0.324,0.056-1.352,0.056-3.082c0-0.766-0.022-1.914-0.065-3.441c-0.043-1.529-0.065-2.676-0.065-3.443
				c0-0.195,0.13-0.293,0.392-0.293c0.236,0,0.591,0.02,1.064,0.059c0.473,0.039,0.833,0.059,1.083,0.059
				c0.211,0,0.528-0.02,0.952-0.059c0.423-0.039,0.74-0.059,0.952-0.059c0.286,0,0.429,0.104,0.429,0.313
				c0,0.818-0.025,2.051-0.075,3.695c-0.05,1.646-0.075,2.879-0.075,3.697c0,1.34,0.006,2.152,0.019,2.438
				c0.037,0.65,0.977,3.506,2.818,8.564c0.199,0.572,0.522,1.391,0.97,2.457c0.012,0.053,0.038,0.098,0.075,0.137
				c0.075,0,0.516-0.865,1.325-2.594c2.451-5.24,3.676-8.199,3.676-8.875c0-1.066-0.056-2.66-0.168-4.779
				c-0.112-2.119-0.168-3.707-0.168-4.76c0-0.195,0.05-0.293,0.149-0.293c0.249,0,0.619,0.02,1.11,0.059
				c0.491,0.039,0.861,0.059,1.11,0.059c0.224,0,0.566-0.02,1.026-0.059s0.809-0.059,1.045-0.059c0.261,0,0.411,0.078,0.448,0.234
				c0-0.014,0,0.168,0,0.547c0,1.027,0.031,2.561,0.093,4.604C289.978,677.354,290.009,678.889,290.009,679.916z"/>
			<path fill="#D25061" d="M298.202,696.887c0,0.271-0.18,0.408-0.541,0.408c-0.224,0-0.566-0.02-1.026-0.059
				c-0.46-0.039-0.803-0.059-1.026-0.059c-0.236,0-0.585,0.02-1.045,0.059c-0.46,0.039-0.803,0.059-1.027,0.059
				c-0.311,0-0.466-0.148-0.466-0.447c0-1.482,0.065-3.717,0.196-6.701c0.131-2.984,0.196-5.225,0.196-6.721
				c0-1.443-0.065-3.611-0.196-6.506c-0.13-2.893-0.196-5.061-0.196-6.504c0-0.326,0.143-0.488,0.429-0.488
				c0.236,0,0.597,0.02,1.083,0.059c0.485,0.039,0.852,0.059,1.101,0.059c0.224,0,0.56-0.02,1.008-0.059
				c0.448-0.039,0.784-0.059,1.008-0.059c0.323,0,0.485,0.131,0.485,0.391c0,1.457-0.05,3.641-0.149,6.555
				c-0.1,2.912-0.149,5.098-0.149,6.553c0,1.496,0.053,3.74,0.159,6.73C298.149,693.146,298.202,695.391,298.202,696.887z"/>
			<path fill="#D25061" d="M319.477,673.615c0,0.338-0.112,0.506-0.336,0.506c-0.349,0-2.551-0.078-6.606-0.234
				c-0.112,3.967-0.168,7.146-0.168,9.539c0,1.496,0.053,3.74,0.159,6.73c0.105,2.99,0.159,5.234,0.159,6.73
				c0,0.271-0.181,0.408-0.542,0.408c-0.224,0-0.566-0.02-1.026-0.059c-0.46-0.039-0.809-0.059-1.045-0.059
				c-0.224,0-0.566,0.02-1.026,0.059c-0.46,0.039-0.803,0.059-1.027,0.059c-0.311,0-0.466-0.162-0.466-0.486
				c0-1.482,0.059-3.711,0.177-6.682s0.177-5.205,0.177-6.701c0-2.314-0.068-5.494-0.205-9.539c-3.21,0.209-5.562,0.313-7.054,0.313
				c-0.149,0-0.224-0.064-0.224-0.195c0-0.232,0.056-0.572,0.168-1.014c0.137-0.572,0.217-0.91,0.243-1.014
				c0.024-0.455,0.112-1.086,0.261-1.893c0.062-0.17,0.168-0.254,0.317-0.254l0.224,0.02c4.404,0.273,7.309,0.41,8.715,0.41
				c1.244,0,3.278-0.098,6.103-0.293c1.928-0.129,2.731-0.195,2.407-0.195c0.324,0,0.504,0.117,0.542,0.352
				c-0.025-0.143-0.038,0.488-0.038,1.893c0,0.168,0.019,0.432,0.056,0.789C319.458,673.162,319.477,673.432,319.477,673.615z"/>
			<path fill="#D25061" d="M345.269,696.848c0,0.299-0.187,0.447-0.56,0.447c-0.212,0-0.538-0.02-0.98-0.059
				c-0.441-0.039-0.774-0.059-0.998-0.059c-0.237,0-0.594,0.02-1.073,0.059s-0.837,0.059-1.073,0.059
				c-0.286,0-0.429-0.148-0.429-0.447c0-1.172,0.034-2.928,0.103-5.268c0.068-2.342,0.103-4.096,0.103-5.268
				c0-0.506-0.144-0.799-0.429-0.877c-0.374-0.104-2.526-0.156-6.458-0.156c-3.919,0-6.071,0.053-6.457,0.156
				c-0.274,0.078-0.411,0.371-0.411,0.877c0,1.145,0.031,2.869,0.093,5.17c0.063,2.303,0.094,4.025,0.094,5.17
				c0,0.428-0.156,0.643-0.467,0.643c-0.236,0-0.591-0.02-1.063-0.059c-0.473-0.039-0.828-0.059-1.064-0.059
				c-0.224,0-0.557,0.02-0.999,0.059c-0.442,0.039-0.774,0.059-0.999,0.059c-0.311,0-0.466-0.148-0.466-0.447
				c0-1.432,0.065-3.58,0.196-6.447c0.131-2.867,0.196-5.018,0.196-6.447c0-1.508-0.065-3.775-0.196-6.799
				c-0.13-3.023-0.196-5.289-0.196-6.797c0-0.287,0.155-0.43,0.466-0.43c0.224,0,0.566,0.02,1.027,0.059
				c0.46,0.039,0.809,0.059,1.045,0.059c0.224,0,0.572-0.02,1.045-0.059s0.821-0.059,1.045-0.059c0.286,0,0.429,0.117,0.429,0.352
				c0,1.119-0.047,2.799-0.14,5.043c-0.093,2.242-0.14,3.924-0.14,5.041c0,0.365,0.131,0.586,0.392,0.664
				c0.311,0.117,2.5,0.176,6.569,0.176c3.981,0,6.159-0.059,6.532-0.176c0.286-0.078,0.429-0.357,0.429-0.84
				c0-1.092-0.035-2.736-0.103-4.934c-0.068-2.199-0.103-3.844-0.103-4.936c0-0.26,0.143-0.391,0.429-0.391
				c0.236,0,0.582,0.02,1.036,0.059s0.799,0.059,1.036,0.059c0.224,0,0.56-0.02,1.008-0.059c0.448-0.039,0.784-0.059,1.007-0.059
				c0.324,0,0.485,0.143,0.485,0.43c0,1.508-0.063,3.773-0.187,6.797c-0.125,3.023-0.187,5.291-0.187,6.799
				c0,1.43,0.068,3.58,0.205,6.447S345.269,695.416,345.269,696.848z"/>
			<path fill="#D25061" d="M378.822,697.139c0,0.105-0.1,0.156-0.299,0.156c-0.236,0-0.596-0.02-1.082-0.059
				c-0.484-0.039-0.846-0.059-1.082-0.059c-0.262,0-0.65,0.02-1.166,0.059c-0.518,0.039-0.906,0.059-1.166,0.059
				c-0.287,0-0.504-0.162-0.654-0.486c-0.398-0.885-1.529-3.623-3.396-8.213c-0.188-0.469-0.641-0.754-1.361-0.859
				c-0.162-0.012-0.729-0.02-1.699-0.02c-1.717,0-2.736,0.027-3.061,0.078c-0.262,0.039-0.393,0.371-0.393,0.996
				c0,0.91,0.041,2.271,0.121,4.086c0.082,1.814,0.123,3.17,0.123,4.066c0,0.273-0.125,0.41-0.375,0.41
				c-0.248,0-0.624-0.029-1.128-0.088s-0.887-0.088-1.147-0.088c-0.212,0-0.535,0.02-0.971,0.059s-0.76,0.059-0.971,0.059
				c-0.311,0-0.467-0.148-0.467-0.447c0-1.445,0.066-3.613,0.196-6.506c0.131-2.895,0.196-5.063,0.196-6.506
				c0-4.109-0.144-8.492-0.43-13.146l-0.019-0.313c-0.013-0.26,0.249-0.391,0.784-0.391c1.07,0,2.672-0.029,4.805-0.088
				c2.135-0.059,3.73-0.088,4.787-0.088c2.762,0,4.977,0.689,6.645,2.068c1.84,1.521,2.762,3.68,2.762,6.477
				c0,1.924-0.25,3.439-0.746,4.545c-0.523,1.17-1.494,2.281-2.912,3.334c-0.236,0.17-0.354,0.332-0.354,0.488
				c0,0.182,0.742,1.912,2.229,5.189C378.08,695.189,378.822,696.932,378.822,697.139z M373.709,679.447
				c0-2.354-0.646-3.928-1.941-4.721c-0.957-0.586-2.68-0.879-5.168-0.879c-2.016,0-3.043,0.17-3.08,0.508
				c-0.088,0.703-0.131,2.582-0.131,5.637v3.727c0.037,0.025,0.119,0.053,0.242,0.078c0.225,0.025,0.592,0.059,1.102,0.098
				c1.182,0.064,2.457,0.098,3.826,0.098C371.992,683.992,373.709,682.477,373.709,679.447z"/>
			<path fill="#D25061" d="M399.035,693.375c0,0.207-0.051,0.506-0.15,0.896c-0.111,0.494-0.18,0.793-0.205,0.898
				c-0.037,0.467-0.125,1.15-0.262,2.047c-0.063,0.234-0.223,0.352-0.484,0.352c-0.125,0-0.361-0.025-0.709-0.078
				c-1.531-0.234-3.9-0.352-7.111-0.352c-0.908,0-2.275,0.027-4.105,0.078c-1.828,0.053-3.197,0.078-4.105,0.078
				c-0.41,0-0.615-0.188-0.615-0.564c0-1.457,0.076-3.645,0.232-6.564s0.234-5.107,0.234-6.564c0-1.482-0.076-4.246-0.225-8.289
				c-0.025-1.041-0.094-2.596-0.205-4.662l-0.02-0.273c-0.012-0.299,0.15-0.449,0.486-0.449c0.871,0,2.176,0.025,3.918,0.078
				s3.049,0.078,3.92,0.078c0.834,0,2.08-0.025,3.742-0.078c1.66-0.053,2.908-0.078,3.74-0.078c0.586,0,0.902,0.189,0.953,0.566
				c0.262,1.717,0.391,2.783,0.391,3.199c0,0.299-0.137,0.447-0.41,0.447c-1.057,0-2.658-0.061-4.805-0.186
				c-2.146-0.123-3.762-0.184-4.844-0.184c-1.02,0-1.664,0.143-1.932,0.428c-0.268,0.287-0.4,0.996-0.4,2.127v2.906
				c0,0.793,0.018,1.256,0.057,1.385c0.111,0.404,0.434,0.605,0.969,0.605c0.15,0,0.361-0.008,0.635-0.02c0.287,0,0.498,0,0.635,0
				c2.439,0,4.629-0.047,6.57-0.137c0.758-0.025,1.654-0.092,2.686-0.195c0.262-0.025,0.393,0.092,0.393,0.352
				c0,0.416-0.047,1.053-0.141,1.91c-0.092,0.859-0.139,1.502-0.139,1.932c0,0.234-0.188,0.352-0.561,0.352
				c-0.148,0-0.703-0.045-1.66-0.137c-0.697-0.078-2.266-0.117-4.703-0.117c-2.053,0-3.354,0.027-3.9,0.078
				c-0.498,0.039-0.783,0.313-0.859,0.82c0.014-0.092,0.02,0.408,0.02,1.502v2.887c0,1.352,0.199,2.197,0.598,2.535
				c0.311,0.273,1.088,0.41,2.332,0.41l2.053-0.02c0.871,0,3.316-0.156,7.334-0.469l0.281-0.02
				C398.91,692.861,399.035,693.023,399.035,693.375z"/>
			<path fill="#D25061" d="M425.012,697.061c0,0.156-0.148,0.234-0.447,0.234c-0.236,0-0.582-0.02-1.037-0.059
				c-0.453-0.039-0.799-0.059-1.035-0.059s-0.59,0.02-1.063,0.059c-0.475,0.039-0.828,0.059-1.064,0.059
				c-0.35,0-0.793-0.984-1.334-2.955s-1.092-2.967-1.652-2.994c-0.461-0.025-1.66-0.039-3.602-0.039h-2.949
				c-2.053,0-3.223,0.014-3.508,0.039c-0.447,0.039-0.924,1.041-1.428,3.004c-0.504,1.965-0.893,2.945-1.166,2.945h-4.199
				c-0.25,0-0.373-0.09-0.373-0.273c0-0.129,0.086-0.422,0.262-0.877l4.572-13.07c0.385-1.053,1.555-4.088,3.508-9.109
				c0.348-0.832,0.82-2.086,1.418-3.764c0.148-0.494,0.311-0.742,0.484-0.742c0.236,0,0.586,0.033,1.047,0.098
				c0.459,0.066,0.809,0.098,1.045,0.098c0.223,0,0.563-0.035,1.016-0.107c0.455-0.07,0.787-0.107,1-0.107
				c0.111,0,0.266,0.242,0.465,0.723c0.299,0.729,1.773,4.648,4.424,11.762C423.139,691.924,425.012,696.971,425.012,697.061z
				 M416.314,686.293c0-0.377-0.559-2.066-1.68-5.07c-1.082-2.914-1.846-4.824-2.295-5.736c-2.574,6.867-3.863,10.463-3.863,10.787
				c0,0.443,0.473,0.703,1.418,0.781c0.051,0.014,0.66,0.02,1.83,0.02h1.922C415.426,687.074,416.314,686.814,416.314,686.293z"/>
			<path fill="#D25061" d="M447.705,692.789c0,0.156-0.117,0.377-0.354,0.664c-2.426,2.939-5.432,4.408-9.014,4.408
				c-3.732,0-6.719-1.424-8.959-4.271c-2.09-2.654-3.135-5.969-3.135-9.949c0-3.979,1.064-7.309,3.191-9.986
				c2.264-2.889,5.256-4.332,8.977-4.332c3.77,0,6.688,1.334,8.752,4c0.199,0.273,0.299,0.5,0.299,0.682
				c0,0.223-0.33,0.875-0.988,1.961c-0.66,1.086-1.059,1.629-1.195,1.629c-0.162,0-0.541-0.318-1.139-0.955
				c-0.734-0.781-1.424-1.365-2.07-1.756c-1.07-0.637-2.252-0.957-3.547-0.957c-2.463,0-4.379,0.982-5.748,2.947
				c-1.219,1.754-1.828,3.965-1.828,6.631s0.604,4.896,1.811,6.691c1.367,2.016,3.277,3.023,5.729,3.023
				c1.219,0,2.395-0.318,3.527-0.955c0.746-0.416,1.506-1.008,2.277-1.775c0.646-0.637,1-0.957,1.063-0.957
				c0.074,0,0.486,0.518,1.232,1.551C447.332,692.117,447.705,692.686,447.705,692.789z"/>
			<path fill="#D25061" d="M467.133,673.615c0,0.338-0.113,0.506-0.336,0.506c-0.35,0-2.551-0.078-6.607-0.234
				c-0.111,3.967-0.168,7.146-0.168,9.539c0,1.496,0.053,3.74,0.158,6.73s0.16,5.234,0.16,6.73c0,0.271-0.182,0.408-0.541,0.408
				c-0.225,0-0.566-0.02-1.027-0.059s-0.809-0.059-1.045-0.059c-0.225,0-0.566,0.02-1.027,0.059
				c-0.459,0.039-0.801,0.059-1.025,0.059c-0.311,0-0.467-0.162-0.467-0.486c0-1.482,0.059-3.711,0.178-6.682
				c0.117-2.971,0.178-5.205,0.178-6.701c0-2.314-0.07-5.494-0.207-9.539c-3.209,0.209-5.561,0.313-7.053,0.313
				c-0.15,0-0.225-0.064-0.225-0.195c0-0.232,0.057-0.572,0.168-1.014c0.137-0.572,0.217-0.91,0.242-1.014
				c0.025-0.455,0.113-1.086,0.262-1.893c0.063-0.17,0.168-0.254,0.316-0.254l0.225,0.02c4.404,0.273,7.309,0.41,8.715,0.41
				c1.244,0,3.279-0.098,6.104-0.293c1.928-0.129,2.73-0.195,2.406-0.195c0.324,0,0.504,0.117,0.541,0.352
				c-0.023-0.143-0.037,0.488-0.037,1.893c0,0.168,0.02,0.432,0.057,0.789S467.133,673.432,467.133,673.615z"/>
			<path fill="#D25061" d="M475.754,670.357c0,1.273-0.047,3.189-0.139,5.744c-0.094,2.555-0.141,4.471-0.141,5.744
				c0,0.625,0.006,1.549,0.018,2.77c0.014,1.223,0.02,2.141,0.02,2.752c0,2.848-0.248,5.156-0.746,6.924
				c-0.672,2.393-1.873,4.311-3.602,5.754c-0.236,0.195-0.404,0.293-0.504,0.293c-0.088,0-0.188-0.07-0.299-0.215
				c-0.885-1.039-1.754-1.969-2.613-2.789c-0.111-0.104-0.168-0.201-0.168-0.293c0-0.104,0.068-0.221,0.205-0.35
				c0.846-0.768,1.418-1.34,1.717-1.717c0.461-0.625,0.809-1.385,1.045-2.283c0.313-1.195,0.467-3.66,0.467-7.393l-0.018-2.945
				c0-1.223-0.076-3.193-0.225-5.91c-0.148-2.615-0.225-4.584-0.225-5.91c0-0.377,0.182-0.566,0.541-0.566
				c0.236,0,0.592,0.02,1.064,0.059s0.828,0.059,1.064,0.059s0.584-0.02,1.045-0.059c0.459-0.039,0.803-0.059,1.025-0.059
				C475.6,669.967,475.754,670.098,475.754,670.357z"/>
			<path fill="#D25061" d="M494.547,671.898c-0.248,0.428-0.592,1.078-1.025,1.949c-0.139,0.404-0.381,0.977-0.729,1.717
				c-0.074,0.117-0.174,0.176-0.299,0.176c0.012,0-0.588-0.23-1.801-0.691c-1.213-0.463-2.211-0.693-2.996-0.693
				c-2.289,0-3.434,1.053-3.434,3.16c0,1.17,0.803,2.191,2.408,3.063c2.699,1.471,4.191,2.314,4.479,2.535
				c1.605,1.34,2.408,3.148,2.408,5.424c0,2.912-1.102,5.209-3.305,6.885c-1.977,1.51-4.41,2.264-7.297,2.264
				c-1.344,0-2.064-0.156-2.164-0.469c-0.051-0.494-0.162-1.215-0.336-2.164c-0.1-0.391-0.256-0.977-0.467-1.756
				c-0.037-0.117-0.057-0.229-0.057-0.332c0-0.182,0.094-0.273,0.281-0.273c0.299,0,0.756,0.033,1.371,0.098
				c0.615,0.066,1.08,0.098,1.391,0.098c3.857,0,5.785-1.301,5.785-3.9c0-1.275-0.777-2.381-2.332-3.316
				c-2.838-1.691-4.287-2.568-4.35-2.633c-1.566-1.328-2.352-3.109-2.352-5.346c0-2.418,0.76-4.355,2.277-5.813
				c1.48-1.404,3.396-2.107,5.748-2.107c0.996,0,2.141,0.17,3.434,0.508c1.406,0.377,2.463,0.832,3.174,1.365
				C494.422,671.697,494.484,671.781,494.547,671.898z"/>
		</g>
	</g>
	<g>
		<path fill="none" d="M371.768,674.727c-0.957-0.586-2.68-0.879-5.168-0.879c-2.016,0-3.043,0.17-3.08,0.508
			c-0.088,0.703-0.131,2.582-0.131,5.637v3.727c0.037,0.025,0.119,0.053,0.242,0.078c0.225,0.025,0.592,0.059,1.102,0.098
			c1.182,0.064,2.457,0.098,3.826,0.098c3.434,0,5.15-1.516,5.15-4.545C373.709,677.094,373.063,675.52,371.768,674.727z"/>
		<path fill="none" d="M209.529,603.775c-1.111,0-3.091,0.1-5.94,0.303c-3.26,0.201-4.938,0.404-5.034,0.605
			c-0.169,0.303-0.254,4.645-0.254,13.023c0,1.061,0.03,2.65,0.091,4.77c0.06,2.121,0.09,3.711,0.09,4.77
			c0,0.229,0.266,0.404,0.797,0.531c1.328,0.277,5.01,0.416,11.047,0.416c3.38,0,6.013-1.098,7.896-3.293
			c1.762-2.096,2.644-4.922,2.644-8.48c0-3.787-0.978-6.814-2.934-9.086C215.904,604.961,213.103,603.775,209.529,603.775z"/>
		<path fill="none" d="M412.34,675.486c-1.409,3.76-2.431,6.532-3.069,8.331c1.867-0.7,3.712-1.41,5.535-2.132
			c-0.058-0.155-0.11-0.3-0.171-0.463C413.553,678.309,412.789,676.398,412.34,675.486z"/>
		<path fill="none" d="M401.42,641.596c4.684,0,8.572-1.969,11.662-5.906c2.922-3.686,4.383-8.025,4.383-13.023
			c0-4.947-1.473-9.25-4.418-12.91c-3.092-3.887-6.967-5.83-11.627-5.83c-4.611,0-8.451,1.969-11.518,5.906
			c-2.898,3.686-4.346,8.002-4.346,12.947c0,4.922,1.447,9.225,4.346,12.91C392.969,639.627,396.809,641.596,401.42,641.596z"/>
		<path fill="none" d="M369.977,688.596c-0.188-0.469-0.641-0.754-1.361-0.859c-0.162-0.012-0.729-0.02-1.699-0.02
			c-1.717,0-2.736,0.027-3.061,0.078c-0.262,0.039-0.393,0.371-0.393,0.996c0,0.91,0.041,2.271,0.121,4.086
			c0.082,1.814,0.123,3.17,0.123,4.066c0,0.273-0.125,0.41-0.375,0.41c-0.248,0-0.623-0.029-1.127-0.088s-0.887-0.088-1.148-0.088
			c-0.211,0-0.535,0.02-0.971,0.059s-0.76,0.059-0.971,0.059c-0.311,0-0.467-0.148-0.467-0.447c0-1.445,0.066-3.613,0.197-6.506
			c0.131-2.895,0.195-5.063,0.195-6.506c0-4.109-0.143-8.492-0.43-13.146l-0.018-0.313c-0.014-0.26,0.248-0.391,0.783-0.391
			c1.07,0,2.672-0.029,4.805-0.088c2.135-0.059,3.73-0.088,4.787-0.088c2.762,0,4.977,0.689,6.645,2.068
			c1.84,1.521,2.762,3.68,2.762,6.477c0,1.924-0.25,3.439-0.746,4.545c-0.523,1.17-1.494,2.281-2.912,3.334
			c-0.236,0.17-0.354,0.332-0.354,0.488c0,0.182,0.742,1.912,2.229,5.189c0.367,0.808,0.688,1.521,0.964,2.143
			c1.281-0.354,2.562-0.707,3.828-1.07c0.036-0.85,0.08-1.785,0.136-2.818c0.156-2.92,0.234-5.107,0.234-6.564
			c0-1.482-0.076-4.246-0.225-8.289c-0.025-1.041-0.094-2.596-0.205-4.662l-0.02-0.273c-0.012-0.299,0.15-0.449,0.486-0.449
			c0.871,0,2.176,0.025,3.918,0.078s3.049,0.078,3.92,0.078c0.834,0,2.08-0.025,3.742-0.078c1.66-0.053,2.908-0.078,3.74-0.078
			c0.586,0,0.902,0.189,0.953,0.566c0.262,1.717,0.391,2.783,0.391,3.199c0,0.299-0.137,0.447-0.41,0.447
			c-1.057,0-2.658-0.061-4.805-0.186c-2.146-0.123-3.762-0.184-4.844-0.184c-1.02,0-1.664,0.143-1.932,0.428
			c-0.268,0.287-0.4,0.996-0.4,2.127v2.906c0,0.793,0.018,1.256,0.057,1.385c0.111,0.404,0.434,0.605,0.969,0.605
			c0.15,0,0.361-0.008,0.635-0.02c0.287,0,0.498,0,0.635,0c2.439,0,4.629-0.047,6.57-0.137c0.758-0.025,1.654-0.092,2.686-0.195
			c0.262-0.025,0.393,0.092,0.393,0.352c0,0.416-0.047,1.053-0.141,1.91c-0.092,0.859-0.139,1.502-0.139,1.932
			c0,0.234-0.188,0.352-0.561,0.352c-0.148,0-0.703-0.045-1.66-0.137c-0.697-0.078-2.266-0.117-4.703-0.117
			c-2.053,0-3.354,0.027-3.9,0.078c-0.498,0.039-0.783,0.313-0.859,0.82c0.014-0.092,0.02,0.408,0.02,1.502v2.887
			c0,0.442,0.029,0.81,0.072,1.144c6.163-1.849,12.137-3.812,17.926-5.873l0.926-2.646c0.385-1.053,1.555-4.088,3.508-9.109
			c0.348-0.832,0.82-2.086,1.418-3.764c0.148-0.494,0.311-0.742,0.484-0.742c0.236,0,0.586,0.033,1.047,0.098
			c0.459,0.066,0.809,0.098,1.045,0.098c0.223,0,0.563-0.035,1.016-0.107c0.455-0.07,0.787-0.107,1-0.107
			c0.111,0,0.266,0.242,0.465,0.723c0.272,0.664,1.523,3.984,3.747,9.946c3.115-1.28,6.162-2.594,9.139-3.938
			c0.439-0.893,0.959-1.735,1.579-2.517c2.264-2.889,5.256-4.332,8.977-4.332c1.031,0,1.993,0.109,2.897,0.31
			c13.562-7.097,25.316-14.897,34.923-23.269c0.049-2.714,0.191-6.318,0.434-10.844c0.301-5.666,0.453-9.912,0.453-12.74
			c0-2.877-0.145-8.24-0.436-16.09c-0.049-2.018-0.18-5.035-0.398-9.047l-0.035-0.531c-0.025-0.58,0.289-0.871,0.941-0.871
			c1.689,0,4.225,0.051,7.605,0.152s5.916,0.15,7.607,0.15c1.617,0,4.037-0.049,7.262-0.15c2.367-0.074,4.297-0.121,5.798-0.142
			c0.127-1.511,0.212-3.026,0.212-4.551c0-66.48-121.122-120.373-270.533-120.373S-35.39,525.22-35.39,591.7
			S85.731,712.073,235.143,712.073c50.25,0,97.288-6.103,137.606-16.724C372.159,693.94,371.24,691.703,369.977,688.596z
			 M432.516,610.268c-0.254-5.867-0.381-10.266-0.381-13.193c0-0.555,0.301-0.834,0.904-0.834c0.436,0,1.1,0.039,1.992,0.115
			c0.895,0.074,1.57,0.113,2.029,0.113c0.434,0,1.086-0.039,1.955-0.113c0.869-0.076,1.521-0.115,1.957-0.115
			c0.555,0,0.832,0.229,0.832,0.682c0,2.146-0.066,5.377-0.199,9.691c-0.133,4.316-0.199,7.561-0.199,9.73
			c0,0.984,0.061,1.604,0.182,1.855c0.193,0.453,0.688,0.682,1.484,0.682c4.686,0,8.113-0.91,10.287-2.727
			c1.859-1.615,3.621-4.58,5.287-8.896c1.207-3.383,2.414-6.764,3.623-10.146c0.168-0.428,0.543-0.719,1.123-0.871
			c0.385-0.1,1.666-0.15,3.838-0.15c2.656,0,3.984,0.391,3.984,1.174c0,0.453-0.555,2.498-1.666,6.133
			c-1.303,4.24-2.994,7.975-5.07,11.205c-1.377,2.197-3.199,4.404-5.469,6.625c-0.58,0.531-0.869,1.01-0.869,1.439
			c0,0.455,0.977,2.713,2.934,6.777c1.689,3.508,3.223,6.322,4.6,8.441c1.521,1.943,3.646,4.936,6.375,8.973
			c0.121,0.227,0.182,0.467,0.182,0.719c0,1.188-0.352,1.779-1.051,1.779h-8.33c-0.701,0-2.525-2.688-5.471-8.063
			c-2.486-4.543-4.141-7.824-4.961-9.844c-0.822-1.943-1.293-3.029-1.414-3.256c-0.723-1.262-1.568-1.932-2.535-2.006
			c-0.289-0.025-1.098-0.039-2.426-0.039c-3.043,0-4.564,0.393-4.564,1.174c0,2.322,0.078,5.793,0.236,10.412
			c0.156,4.617,0.234,8.076,0.234,10.373c0,0.832-0.301,1.248-0.904,1.248c-0.459,0-1.148-0.037-2.064-0.113
			c-0.918-0.076-1.607-0.113-2.064-0.113c-0.436,0-1.082,0.037-1.938,0.113c-0.857,0.076-1.504,0.113-1.939,0.113
			c-0.604,0-0.904-0.289-0.904-0.871c0-2.775,0.127-6.945,0.381-12.512c0.252-5.564,0.379-9.734,0.379-12.512
			C432.895,620.533,432.768,616.135,432.516,610.268z M383.744,603.434c4.781-5.627,10.697-8.441,17.748-8.441
			c7.074,0,13.004,2.814,17.785,8.441c4.611,5.402,6.918,11.85,6.918,19.346s-2.295,13.945-6.883,19.346
			c-4.781,5.604-10.721,8.404-17.82,8.404c-7.123,0-13.063-2.789-17.82-8.367c-4.588-5.375-6.881-11.836-6.881-19.383
			C376.791,615.309,379.109,608.861,383.744,603.434z M91.889,616.912c5.239,2.852,8.137,4.492,8.692,4.922
			c3.115,2.6,4.672,6.107,4.672,10.523c0,5.654-2.137,10.107-6.411,13.363c-3.839,2.93-8.561,4.393-14.162,4.393
			c-2.607,0-4.008-0.303-4.201-0.908c-0.097-0.959-0.314-2.359-0.652-4.203c-0.194-0.758-0.496-1.893-0.906-3.406
			c-0.072-0.229-0.108-0.441-0.108-0.645c0-0.354,0.181-0.529,0.543-0.529c0.58,0,1.467,0.063,2.662,0.189
			c1.195,0.127,2.095,0.189,2.699,0.189c7.485,0,11.228-2.523,11.228-7.572c0-2.473-1.509-4.619-4.528-6.436
			c-5.505-3.281-8.318-4.984-8.439-5.111c-3.042-2.574-4.563-6.031-4.563-10.373c0-4.695,1.472-8.455,4.418-11.281
			c2.874-2.727,6.592-4.09,11.156-4.09c1.932,0,4.153,0.328,6.665,0.984c2.728,0.732,4.781,1.615,6.157,2.65
			c0.121,0.102,0.241,0.266,0.362,0.492c-0.483,0.834-1.147,2.096-1.992,3.785c-0.266,0.783-0.737,1.895-1.413,3.332
			c-0.145,0.229-0.338,0.342-0.58,0.342c0.024,0-1.141-0.449-3.495-1.344c-2.354-0.896-4.292-1.346-5.813-1.346
			c-4.443,0-6.665,2.045-6.665,6.135C87.216,613.24,88.773,615.221,91.889,616.912z M121.697,649.355
			c-0.435,0-1.099-0.037-1.992-0.113c-0.894-0.076-1.557-0.113-1.992-0.113c-0.459,0-1.135,0.037-2.028,0.113
			c-0.894,0.076-1.558,0.113-1.992,0.113c-0.604,0-0.906-0.289-0.906-0.871c0-2.877,0.127-7.211,0.38-13.004
			c0.254-5.791,0.38-10.139,0.38-13.041c0-2.803-0.126-7.01-0.38-12.627c-0.253-5.615-0.38-9.824-0.38-12.625
			c0-0.631,0.277-0.947,0.833-0.947c0.458,0,1.159,0.039,2.101,0.115c0.941,0.074,1.654,0.113,2.137,0.113
			c0.435,0,1.087-0.039,1.956-0.113c0.869-0.076,1.521-0.115,1.956-0.115c0.627,0,0.941,0.254,0.941,0.758
			c0,2.826-0.097,7.066-0.29,12.721c-0.194,5.654-0.29,9.895-0.29,12.721c0,2.902,0.103,7.256,0.308,13.061
			c0.205,5.805,0.308,10.158,0.308,13.061C122.748,649.092,122.397,649.355,121.697,649.355z M180.373,649.355
			c-0.435,0-1.093-0.037-1.974-0.113c-0.882-0.076-1.54-0.113-1.974-0.113s-1.099,0.037-1.992,0.113
			c-0.894,0.076-1.558,0.113-1.992,0.113c-0.604,0-0.906-0.416-0.906-1.248c0-3.205,0.096-8.014,0.29-14.424
			c0.193-6.412,0.29-11.219,0.29-14.426c0-0.479-0.097-0.719-0.29-0.719c-0.217,0-0.387,0.139-0.507,0.416
			c-1.231,2.752-4.141,10.096-8.729,22.035c-0.749,2.297-1.823,5.16-3.223,8.594c-0.169,0.326-1.039,0.492-2.608,0.492
			c-2.27,0-3.526-0.215-3.767-0.645c-0.821-2.045-1.992-4.908-3.513-8.594c-2.004-4.998-5.083-12.441-9.236-22.336
			c-0.072-0.176-0.23-0.354-0.471-0.531c-0.194,0.152-0.29,0.43-0.29,0.834c0,3.256,0.054,8.139,0.163,14.65
			s0.163,11.396,0.163,14.652c0,0.832-0.302,1.248-0.906,1.248c-0.411,0-1.038-0.037-1.883-0.113s-1.473-0.113-1.883-0.113
			c-0.435,0-1.081,0.037-1.938,0.113c-0.857,0.076-1.503,0.113-1.938,0.113c-0.604,0-0.906-0.238-0.906-0.719
			c0-2.801,0.127-6.998,0.38-12.588c0.254-5.59,0.38-9.787,0.38-12.588c0-2.902-0.126-7.262-0.38-13.08
			c-0.253-5.816-0.38-10.178-0.38-13.08c0-0.479,0.277-0.758,0.833-0.832c3.283-0.455,5.759-0.682,7.425-0.682
			c0.241,0,0.58,0.518,1.014,1.553c5.843,13.426,10.866,25.414,15.067,35.965c0.99,2.473,1.581,3.709,1.774,3.709
			c0.241,0,0.761-1.008,1.558-3.027c3.284-8.178,7.835-20.318,13.655-36.42c0.362-0.984,0.761-1.477,1.195-1.477
			c0.821,0,2.058,0.051,3.712,0.15c1.654,0.102,2.892,0.152,3.712,0.152c0.604,0,0.906,0.303,0.906,0.908
			c0,2.902-0.091,7.264-0.272,13.08c-0.181,5.818-0.271,10.178-0.271,13.08c0,2.777,0.103,6.941,0.308,12.494
			c0.205,5.553,0.308,9.703,0.308,12.455C181.278,649.041,180.976,649.355,180.373,649.355z M225.394,630.086
			c-3.164,3.66-7.546,5.49-13.147,5.49c-1.376,0-3.459-0.057-6.248-0.172c-2.789-0.113-4.884-0.17-6.284-0.17
			c-0.773,0-1.159,0.518-1.159,1.553c0,1.338,0.078,3.344,0.235,6.02c0.157,2.676,0.235,4.682,0.235,6.02
			c0,0.43-0.23,0.643-0.688,0.643c-0.507,0-1.274-0.057-2.3-0.17c-1.026-0.113-1.793-0.17-2.3-0.17c-0.435,0-1.075,0.037-1.92,0.113
			s-1.473,0.113-1.883,0.113c-0.604,0-0.905-0.391-0.905-1.174c0-2.75,0.114-6.902,0.344-12.455
			c0.229-5.551,0.344-9.717,0.344-12.492c0-7.875-0.278-16.33-0.833-25.365l-0.036-0.568c-0.024-0.555,0.29-0.832,0.942-0.832
			c1.304,0,3.265,0.012,5.885,0.037s4.594,0.037,5.922,0.037c1.135,0,2.837-0.049,5.107-0.15s3.972-0.152,5.107-0.152
			c5.336,0,9.718,1.895,13.147,5.68c3.356,3.709,5.035,8.354,5.035,13.932C229.994,621.783,228.46,626.527,225.394,630.086z
			 M243.938,649.242c-3.356,0.076-5.88,0.113-7.57,0.113c-0.604,0-0.905-0.314-0.905-0.945c0-2.752,0.09-6.902,0.271-12.455
			s0.271-9.717,0.271-12.494c0-2.928-0.126-7.313-0.38-13.156c-0.253-5.842-0.38-10.227-0.38-13.154
			c0-0.555,0.302-0.834,0.906-0.834c0.435,0,1.099,0.039,1.992,0.113c0.893,0.076,1.569,0.113,2.028,0.113
			c0.435,0,1.11-0.037,2.028-0.113c0.917-0.074,1.593-0.113,2.028-0.113c0.579,0,0.869,0.24,0.869,0.719
			c0,2.676-0.097,6.701-0.29,12.078c-0.193,5.375-0.29,9.414-0.29,12.113c0,1.313,0,3.307,0,5.982
			c-0.024,2.676-0.036,4.67-0.036,5.982c0,5.602,0.217,8.404,0.652,8.404c8.91,0,15.634-0.229,20.174-0.682
			c0.217-0.025,0.772-0.113,1.666-0.266c0.725-0.15,1.28-0.227,1.666-0.227c0.507,0,0.761,0.24,0.761,0.719
			c0,3.533-0.181,6.045-0.543,7.533c-0.169,0.732-0.592,1.098-1.268,1.098c-1.787,0-4.467-0.107-8.041-0.32
			c-3.574-0.215-6.254-0.322-8.041-0.322C249.817,649.129,247.294,649.166,243.938,649.242z M286.277,688.264
			c-0.833,1.898-2.109,4.734-3.826,8.506c-0.162,0.35-0.33,0.525-0.504,0.525h-3.359c-0.236,0-0.429-0.176-0.578-0.525
			c-0.921-2.264-2.246-5.826-3.975-10.689c-0.858,2.393-2.196,5.955-4.013,10.689c-0.137,0.35-0.324,0.525-0.56,0.525h-3.341
			c-0.187,0-0.361-0.176-0.522-0.525c-0.858-1.887-2.146-4.721-3.863-8.506c-2.376-5.176-3.564-7.959-3.564-8.348
			c0-1.066,0.031-2.674,0.094-4.818c0.062-2.146,0.093-3.752,0.093-4.818c0-0.234,0.155-0.352,0.466-0.352
			c0.224,0,0.563,0.02,1.017,0.059s0.793,0.059,1.017,0.059c0.211,0,0.529-0.014,0.952-0.039s0.74-0.039,0.952-0.039
			c0.261,0,0.392,0.098,0.392,0.293c0,1.053-0.059,2.643-0.177,4.77c-0.118,2.125-0.177,3.715-0.177,4.77
			c0,0.662,1.256,3.666,3.77,9.012c0.833,1.768,1.288,2.652,1.362,2.652c0.024-0.014,0.056-0.059,0.093-0.137
			c0.149-0.299,0.466-1.131,0.952-2.496c0.896-2.537,1.816-5.416,2.762-8.643c0.037-0.324,0.056-1.352,0.056-3.082
			c0-0.766-0.022-1.914-0.065-3.441c-0.043-1.529-0.065-2.676-0.065-3.443c0-0.195,0.13-0.293,0.392-0.293
			c0.236,0,0.591,0.02,1.064,0.059c0.473,0.039,0.833,0.059,1.083,0.059c0.211,0,0.528-0.02,0.952-0.059
			c0.423-0.039,0.74-0.059,0.952-0.059c0.286,0,0.429,0.104,0.429,0.313c0,0.818-0.025,2.051-0.075,3.695
			c-0.05,1.646-0.075,2.879-0.075,3.697c0,1.34,0.006,2.152,0.019,2.438c0.037,0.65,0.977,3.506,2.818,8.564
			c0.199,0.572,0.522,1.391,0.97,2.457c0.012,0.053,0.038,0.098,0.075,0.137c0.075,0,0.516-0.865,1.325-2.594
			c2.451-5.24,3.676-8.199,3.676-8.875c0-1.066-0.056-2.66-0.168-4.779c-0.112-2.119-0.168-3.707-0.168-4.76
			c0-0.195,0.05-0.293,0.149-0.293c0.249,0,0.619,0.02,1.11,0.059c0.491,0.039,0.861,0.059,1.11,0.059
			c0.224,0,0.566-0.02,1.026-0.059s0.809-0.059,1.045-0.059c0.261,0,0.411,0.078,0.448,0.234c0-0.014,0,0.168,0,0.547
			c0,1.027,0.031,2.561,0.093,4.604c0.062,2.041,0.093,3.576,0.093,4.604C290.009,680.02,288.765,682.803,286.277,688.264z
			 M282.621,649.205c-3.55,0.102-6.206,0.15-7.968,0.15c-0.797,0-1.195-0.365-1.195-1.098c0-2.826,0.15-7.072,0.453-12.738
			c0.302-5.666,0.453-9.912,0.453-12.74c0-2.877-0.145-8.24-0.435-16.09c-0.049-2.018-0.181-5.035-0.398-9.047l-0.036-0.531
			c-0.024-0.58,0.29-0.871,0.942-0.871c1.689,0,4.225,0.051,7.606,0.152c3.38,0.102,5.916,0.15,7.606,0.15
			c1.618,0,4.039-0.049,7.262-0.15s5.644-0.152,7.262-0.152c1.135,0,1.75,0.367,1.847,1.1c0.507,3.33,0.761,5.4,0.761,6.207
			c0,0.582-0.266,0.871-0.797,0.871c-2.053,0-5.161-0.119-9.327-0.359c-4.165-0.24-7.298-0.359-9.399-0.359
			c-1.98,0-3.229,0.277-3.749,0.832c-0.52,0.557-0.779,1.932-0.779,4.127v5.641c0,1.541,0.036,2.436,0.109,2.688
			c0.217,0.783,0.845,1.174,1.883,1.174c0.29,0,0.7-0.012,1.231-0.037c0.555,0,0.965,0,1.231,0c4.732,0,8.982-0.088,12.75-0.266
			c1.472-0.049,3.211-0.176,5.215-0.379c0.507-0.049,0.761,0.178,0.761,0.682c0,0.809-0.091,2.045-0.271,3.711
			c-0.181,1.666-0.272,2.914-0.272,3.748c0,0.453-0.362,0.682-1.086,0.682c-0.29,0-1.365-0.088-3.224-0.266
			c-1.353-0.15-4.395-0.227-9.127-0.227c-3.984,0-6.507,0.051-7.57,0.15c-0.966,0.076-1.521,0.605-1.666,1.59
			c0.024-0.176,0.036,0.795,0.036,2.916v5.604c0,2.625,0.386,4.266,1.159,4.922c0.603,0.529,2.113,0.795,4.527,0.795l3.984-0.039
			c1.689,0,6.435-0.303,14.234-0.908l0.543-0.037c0.483-0.051,0.725,0.264,0.725,0.945c0,0.404-0.097,0.984-0.29,1.742
			c-0.217,0.959-0.35,1.539-0.398,1.74c-0.072,0.91-0.242,2.234-0.507,3.977c-0.121,0.453-0.435,0.682-0.942,0.682
			c-0.242,0-0.701-0.051-1.376-0.152c-2.97-0.455-7.57-0.682-13.799-0.682C288.826,649.053,286.17,649.104,282.621,649.205z
			 M297.661,697.295c-0.224,0-0.566-0.02-1.026-0.059c-0.46-0.039-0.803-0.059-1.026-0.059c-0.236,0-0.585,0.02-1.045,0.059
			c-0.46,0.039-0.803,0.059-1.027,0.059c-0.311,0-0.466-0.148-0.466-0.447c0-1.482,0.065-3.717,0.196-6.701
			c0.131-2.984,0.196-5.225,0.196-6.721c0-1.443-0.065-3.611-0.196-6.506c-0.13-2.893-0.196-5.061-0.196-6.504
			c0-0.326,0.143-0.488,0.429-0.488c0.236,0,0.597,0.02,1.083,0.059c0.485,0.039,0.852,0.059,1.101,0.059
			c0.224,0,0.56-0.02,1.008-0.059c0.448-0.039,0.784-0.059,1.008-0.059c0.323,0,0.485,0.131,0.485,0.391
			c0,1.457-0.05,3.641-0.149,6.555c-0.1,2.912-0.149,5.098-0.149,6.553c0,1.496,0.053,3.74,0.159,6.73
			c0.105,2.99,0.158,5.234,0.158,6.73C298.202,697.158,298.021,697.295,297.661,697.295z M319.141,674.121
			c-0.349,0-2.551-0.078-6.606-0.234c-0.112,3.967-0.168,7.146-0.168,9.539c0,1.496,0.053,3.74,0.159,6.73
			c0.105,2.99,0.159,5.234,0.159,6.73c0,0.271-0.181,0.408-0.542,0.408c-0.224,0-0.566-0.02-1.026-0.059
			c-0.46-0.039-0.809-0.059-1.045-0.059c-0.224,0-0.566,0.02-1.026,0.059c-0.46,0.039-0.803,0.059-1.027,0.059
			c-0.311,0-0.466-0.162-0.466-0.486c0-1.482,0.059-3.711,0.177-6.682s0.177-5.205,0.177-6.701c0-2.314-0.068-5.494-0.205-9.539
			c-3.21,0.209-5.562,0.313-7.054,0.313c-0.149,0-0.224-0.064-0.224-0.195c0-0.232,0.056-0.572,0.168-1.014
			c0.137-0.572,0.217-0.91,0.243-1.014c0.024-0.455,0.112-1.086,0.261-1.893c0.062-0.17,0.168-0.254,0.317-0.254l0.224,0.02
			c4.404,0.273,7.309,0.41,8.715,0.41c1.244,0,3.278-0.098,6.103-0.293c1.514-0.102,2.324-0.163,2.449-0.186
			c-0.017-0.001-0.024-0.01-0.042-0.01c0.069,0,0.077,0.004,0.042,0.01c0.282,0.012,0.449,0.118,0.49,0.327
			c0.003-0.008,0.006-0.004,0.009,0.015c-0.001-0.007-0.008-0.009-0.009-0.015c-0.019,0.051-0.028,0.686-0.028,1.907
			c0,0.168,0.019,0.432,0.056,0.789c0.038,0.357,0.056,0.627,0.056,0.811C319.477,673.953,319.365,674.121,319.141,674.121z
			 M344.708,697.295c-0.212,0-0.538-0.02-0.98-0.059c-0.441-0.039-0.774-0.059-0.998-0.059c-0.237,0-0.594,0.02-1.073,0.059
			s-0.837,0.059-1.073,0.059c-0.286,0-0.429-0.148-0.429-0.447c0-1.172,0.034-2.928,0.103-5.268
			c0.068-2.342,0.103-4.096,0.103-5.268c0-0.506-0.144-0.799-0.429-0.877c-0.374-0.104-2.526-0.156-6.458-0.156
			c-3.919,0-6.071,0.053-6.457,0.156c-0.274,0.078-0.411,0.371-0.411,0.877c0,1.145,0.031,2.869,0.093,5.17
			c0.063,2.303,0.094,4.025,0.094,5.17c0,0.428-0.156,0.643-0.467,0.643c-0.236,0-0.591-0.02-1.063-0.059
			c-0.473-0.039-0.828-0.059-1.064-0.059c-0.224,0-0.557,0.02-0.999,0.059c-0.442,0.039-0.774,0.059-0.999,0.059
			c-0.311,0-0.466-0.148-0.466-0.447c0-1.432,0.065-3.58,0.196-6.447c0.131-2.867,0.196-5.018,0.196-6.447
			c0-1.508-0.065-3.775-0.196-6.799c-0.13-3.023-0.196-5.289-0.196-6.797c0-0.287,0.155-0.43,0.466-0.43
			c0.224,0,0.566,0.02,1.027,0.059c0.46,0.039,0.809,0.059,1.045,0.059c0.224,0,0.572-0.02,1.045-0.059s0.821-0.059,1.045-0.059
			c0.286,0,0.429,0.117,0.429,0.352c0,1.119-0.047,2.799-0.14,5.043c-0.093,2.242-0.14,3.924-0.14,5.041
			c0,0.365,0.131,0.586,0.392,0.664c0.311,0.117,2.5,0.176,6.569,0.176c3.981,0,6.159-0.059,6.532-0.176
			c0.286-0.078,0.429-0.357,0.429-0.84c0-1.092-0.035-2.736-0.103-4.934c-0.068-2.199-0.103-3.844-0.103-4.936
			c0-0.26,0.143-0.391,0.429-0.391c0.236,0,0.582,0.02,1.036,0.059s0.799,0.059,1.036,0.059c0.224,0,0.56-0.02,1.008-0.059
			c0.448-0.039,0.784-0.059,1.007-0.059c0.324,0,0.485,0.143,0.485,0.43c0,1.508-0.063,3.773-0.187,6.797
			c-0.125,3.023-0.187,5.291-0.187,6.799c0,1.43,0.068,3.58,0.205,6.447s0.206,5.016,0.206,6.447
			C345.269,697.146,345.082,697.295,344.708,697.295z M349.101,635.404c-2.789-0.113-4.883-0.17-6.284-0.17
			c-0.773,0-1.159,0.518-1.159,1.553c0,1.338,0.078,3.344,0.235,6.02c0.157,2.676,0.235,4.682,0.235,6.02
			c0,0.43-0.23,0.643-0.688,0.643c-0.507,0-1.274-0.057-2.3-0.17c-1.026-0.113-1.793-0.17-2.3-0.17c-0.435,0-1.075,0.037-1.92,0.113
			s-1.473,0.113-1.883,0.113c-0.604,0-0.905-0.391-0.905-1.174c0-2.75,0.114-6.902,0.344-12.455
			c0.229-5.551,0.344-9.717,0.344-12.492c0-7.875-0.278-16.33-0.833-25.365l-0.036-0.568c-0.024-0.555,0.29-0.832,0.942-0.832
			c1.304,0,3.265,0.012,5.885,0.037s4.594,0.037,5.922,0.037c1.135,0,2.837-0.049,5.107-0.15c2.27-0.102,3.972-0.152,5.107-0.152
			c5.336,0,9.717,1.895,13.147,5.68c3.355,3.709,5.035,8.354,5.035,13.932c0,5.932-1.535,10.676-4.602,14.234
			c-3.162,3.66-7.545,5.49-13.147,5.49C353.973,635.576,351.89,635.52,349.101,635.404z"/>
		<path fill="none" d="M352.632,603.775c-1.11,0-3.09,0.1-5.939,0.303c-3.26,0.201-4.938,0.404-5.034,0.605
			c-0.169,0.303-0.254,4.645-0.254,13.023c0,1.061,0.03,2.65,0.091,4.77c0.06,2.121,0.09,3.711,0.09,4.77
			c0,0.229,0.266,0.404,0.797,0.531c1.328,0.277,5.01,0.416,11.046,0.416c3.381,0,6.014-1.098,7.897-3.293
			c1.762-2.096,2.643-4.922,2.643-8.48c0-3.787-0.977-6.814-2.932-9.086C359.008,604.961,356.207,603.775,352.632,603.775z"/>
		<path fill="none" d="M490.014,603.699c-1.98,0-3.23,0.277-3.75,0.832c-0.52,0.557-0.777,1.932-0.777,4.127v5.641
			c0,1.541,0.035,2.436,0.107,2.688c0.217,0.783,0.846,1.174,1.883,1.174c0.291,0,0.701-0.012,1.232-0.037c0.555,0,0.965,0,1.232,0
			c3.323,0,6.396-0.046,9.245-0.134c2.24-4.475,3.931-9.041,5.018-13.688c-1.405-0.059-2.994-0.139-4.792-0.242
			C495.246,603.818,492.113,603.699,490.014,603.699z"/>
		<path fill="none" d="M485.449,627.549c0.023-0.176,0.037,0.795,0.037,2.916v5.604c0,0.46,0.017,0.878,0.04,1.277
			c3.461-3.755,6.507-7.604,9.114-11.537c-3.957,0-6.467,0.051-7.525,0.15C486.148,626.035,485.594,626.564,485.449,627.549z"/>
		<path fill="#F5CC1A" d="M93.881,604.834c1.521,0,3.458,0.449,5.813,1.346c2.354,0.895,3.519,1.344,3.495,1.344
			c0.241,0,0.435-0.113,0.58-0.342c0.676-1.438,1.146-2.549,1.413-3.332c0.845-1.689,1.509-2.951,1.992-3.785
			c-0.121-0.227-0.242-0.391-0.362-0.492c-1.376-1.035-3.429-1.918-6.157-2.65c-2.512-0.656-4.733-0.984-6.665-0.984
			c-4.563,0-8.282,1.363-11.156,4.09c-2.946,2.826-4.418,6.586-4.418,11.281c0,4.342,1.521,7.799,4.563,10.373
			c0.121,0.127,2.934,1.83,8.439,5.111c3.019,1.816,4.528,3.963,4.528,6.436c0,5.049-3.743,7.572-11.228,7.572
			c-0.604,0-1.503-0.063-2.699-0.189c-1.195-0.127-2.083-0.189-2.662-0.189c-0.362,0-0.543,0.176-0.543,0.529
			c0,0.203,0.036,0.416,0.108,0.645c0.41,1.514,0.712,2.648,0.906,3.406c0.338,1.844,0.555,3.244,0.652,4.203
			c0.193,0.605,1.594,0.908,4.201,0.908c5.602,0,10.323-1.463,14.162-4.393c4.274-3.256,6.411-7.709,6.411-13.363
			c0-4.416-1.557-7.924-4.672-10.523c-0.556-0.43-3.453-2.07-8.692-4.922c-3.115-1.691-4.672-3.672-4.672-5.943
			C87.216,606.879,89.438,604.834,93.881,604.834z"/>
		<path fill="#F5CC1A" d="M122.132,622.439c0-2.826,0.096-7.066,0.29-12.721c0.193-5.654,0.29-9.895,0.29-12.721
			c0-0.504-0.314-0.758-0.941-0.758c-0.435,0-1.087,0.039-1.956,0.115c-0.869,0.074-1.521,0.113-1.956,0.113
			c-0.483,0-1.195-0.039-2.137-0.113c-0.942-0.076-1.643-0.115-2.101-0.115c-0.556,0-0.833,0.316-0.833,0.947
			c0,2.801,0.127,7.01,0.38,12.625c0.254,5.617,0.38,9.824,0.38,12.627c0,2.902-0.126,7.25-0.38,13.041
			c-0.253,5.793-0.38,10.127-0.38,13.004c0,0.582,0.302,0.871,0.906,0.871c0.435,0,1.099-0.037,1.992-0.113
			c0.893-0.076,1.569-0.113,2.028-0.113c0.435,0,1.098,0.037,1.992,0.113c0.893,0.076,1.558,0.113,1.992,0.113
			c0.7,0,1.05-0.264,1.05-0.795c0-2.902-0.103-7.256-0.308-13.061C122.234,629.695,122.132,625.342,122.132,622.439z"/>
		<path fill="#F5CC1A" d="M180.663,623.461c0-2.902,0.091-7.262,0.271-13.08c0.181-5.816,0.272-10.178,0.272-13.08
			c0-0.605-0.302-0.908-0.906-0.908c-0.821,0-2.059-0.051-3.712-0.152c-1.654-0.1-2.892-0.15-3.712-0.15
			c-0.435,0-0.833,0.492-1.195,1.477c-5.819,16.102-10.371,28.242-13.655,36.42c-0.797,2.02-1.316,3.027-1.558,3.027
			c-0.193,0-0.785-1.236-1.774-3.709c-4.202-10.551-9.224-22.539-15.067-35.965c-0.435-1.035-0.773-1.553-1.014-1.553
			c-1.666,0-4.142,0.227-7.425,0.682c-0.556,0.074-0.833,0.354-0.833,0.832c0,2.902,0.127,7.264,0.38,13.08
			c0.254,5.818,0.38,10.178,0.38,13.08c0,2.801-0.126,6.998-0.38,12.588c-0.253,5.59-0.38,9.787-0.38,12.588
			c0,0.48,0.302,0.719,0.906,0.719c0.435,0,1.08-0.037,1.938-0.113c0.857-0.076,1.503-0.113,1.938-0.113
			c0.41,0,1.038,0.037,1.883,0.113s1.473,0.113,1.883,0.113c0.604,0,0.906-0.416,0.906-1.248c0-3.256-0.054-8.141-0.163-14.652
			s-0.163-11.395-0.163-14.65c0-0.404,0.096-0.682,0.29-0.834c0.241,0.178,0.398,0.355,0.471,0.531
			c4.153,9.895,7.231,17.338,9.236,22.336c1.521,3.686,2.692,6.549,3.513,8.594c0.241,0.43,1.497,0.645,3.767,0.645
			c1.569,0,2.438-0.166,2.608-0.492c1.4-3.434,2.475-6.297,3.223-8.594c4.588-11.939,7.498-19.283,8.729-22.035
			c0.121-0.277,0.29-0.416,0.507-0.416c0.193,0,0.29,0.24,0.29,0.719c0,3.207-0.097,8.014-0.29,14.426
			c-0.194,6.41-0.29,11.219-0.29,14.424c0,0.832,0.302,1.248,0.906,1.248c0.435,0,1.098-0.037,1.992-0.113
			c0.893-0.076,1.557-0.113,1.992-0.113s1.092,0.037,1.974,0.113c0.881,0.076,1.54,0.113,1.974,0.113
			c0.603,0,0.905-0.314,0.905-0.945c0-2.752-0.103-6.902-0.308-12.455C180.765,630.402,180.663,626.238,180.663,623.461z"/>
		<path fill="#F5CC1A" d="M211.812,596.24c-1.135,0-2.838,0.051-5.107,0.152s-3.972,0.15-5.107,0.15
			c-1.328,0-3.302-0.012-5.922-0.037s-4.582-0.037-5.885-0.037c-0.652,0-0.966,0.277-0.942,0.832l0.036,0.568
			c0.555,9.035,0.833,17.49,0.833,25.365c0,2.775-0.115,6.941-0.344,12.492c-0.23,5.553-0.344,9.705-0.344,12.455
			c0,0.783,0.302,1.174,0.905,1.174c0.411,0,1.038-0.037,1.883-0.113s1.485-0.113,1.92-0.113c0.507,0,1.273,0.057,2.3,0.17
			c1.026,0.113,1.793,0.17,2.3,0.17c0.458,0,0.688-0.213,0.688-0.643c0-1.338-0.079-3.344-0.235-6.02
			c-0.158-2.676-0.235-4.682-0.235-6.02c0-1.035,0.386-1.553,1.159-1.553c1.4,0,3.495,0.057,6.284,0.17
			c2.789,0.115,4.872,0.172,6.248,0.172c5.602,0,9.984-1.83,13.147-5.49c3.066-3.559,4.6-8.303,4.6-14.234
			c0-5.578-1.679-10.223-5.035-13.932C221.53,598.135,217.147,596.24,211.812,596.24z M218.222,624.9
			c-1.883,2.195-4.516,3.293-7.896,3.293c-6.037,0-9.719-0.139-11.047-0.416c-0.531-0.127-0.797-0.303-0.797-0.531
			c0-1.059-0.03-2.648-0.09-4.77c-0.061-2.119-0.091-3.709-0.091-4.77c0-8.379,0.084-12.721,0.254-13.023
			c0.096-0.201,1.774-0.404,5.034-0.605c2.849-0.203,4.829-0.303,5.94-0.303c3.573,0,6.375,1.186,8.403,3.559
			c1.956,2.271,2.934,5.299,2.934,9.086C220.866,619.979,219.984,622.805,218.222,624.9z"/>
		<path fill="#F5CC1A" d="M267.589,649.771c0.676,0,1.099-0.365,1.268-1.098c0.362-1.488,0.543-4,0.543-7.533
			c0-0.479-0.253-0.719-0.761-0.719c-0.386,0-0.941,0.076-1.666,0.227c-0.894,0.152-1.449,0.24-1.666,0.266
			c-4.54,0.453-11.264,0.682-20.174,0.682c-0.435,0-0.652-2.803-0.652-8.404c0-1.313,0.012-3.307,0.036-5.982
			c0-2.676,0-4.67,0-5.982c0-2.699,0.096-6.738,0.29-12.113c0.193-5.377,0.29-9.402,0.29-12.078c0-0.479-0.29-0.719-0.869-0.719
			c-0.435,0-1.111,0.039-2.028,0.113c-0.918,0.076-1.594,0.113-2.028,0.113c-0.459,0-1.135-0.037-2.028-0.113
			c-0.894-0.074-1.558-0.113-1.992-0.113c-0.604,0-0.906,0.279-0.906,0.834c0,2.928,0.127,7.313,0.38,13.154
			c0.254,5.844,0.38,10.229,0.38,13.156c0,2.777-0.09,6.941-0.271,12.494s-0.271,9.703-0.271,12.455
			c0,0.631,0.301,0.945,0.905,0.945c1.69,0,4.213-0.037,7.57-0.113c3.356-0.076,5.879-0.113,7.57-0.113
			c1.787,0,4.467,0.107,8.041,0.322C263.122,649.664,265.802,649.771,267.589,649.771z"/>
		<path fill="#F5CC1A" d="M305.765,649.887c0.507,0,0.821-0.229,0.942-0.682c0.265-1.742,0.435-3.066,0.507-3.977
			c0.048-0.201,0.181-0.781,0.398-1.74c0.193-0.758,0.29-1.338,0.29-1.742c0-0.682-0.242-0.996-0.725-0.945l-0.543,0.037
			c-7.799,0.605-12.544,0.908-14.234,0.908l-3.984,0.039c-2.415,0-3.924-0.266-4.527-0.795c-0.773-0.656-1.159-2.297-1.159-4.922
			v-5.604c0-2.121-0.012-3.092-0.036-2.916c0.145-0.984,0.7-1.514,1.666-1.59c1.063-0.1,3.586-0.15,7.57-0.15
			c4.732,0,7.775,0.076,9.127,0.227c1.859,0.178,2.934,0.266,3.224,0.266c0.724,0,1.086-0.229,1.086-0.682
			c0-0.834,0.091-2.082,0.272-3.748c0.181-1.666,0.271-2.902,0.271-3.711c0-0.504-0.253-0.73-0.761-0.682
			c-2.004,0.203-3.743,0.33-5.215,0.379c-3.767,0.178-8.017,0.266-12.75,0.266c-0.266,0-0.676,0-1.231,0
			c-0.531,0.025-0.942,0.037-1.231,0.037c-1.039,0-1.666-0.391-1.883-1.174c-0.073-0.252-0.109-1.146-0.109-2.688v-5.641
			c0-2.195,0.259-3.57,0.779-4.127c0.519-0.555,1.769-0.832,3.749-0.832c2.101,0,5.234,0.119,9.399,0.359
			c4.166,0.24,7.274,0.359,9.327,0.359c0.531,0,0.797-0.289,0.797-0.871c0-0.807-0.253-2.877-0.761-6.207
			c-0.097-0.732-0.712-1.1-1.847-1.1c-1.618,0-4.038,0.051-7.262,0.152s-5.645,0.15-7.262,0.15c-1.69,0-4.226-0.049-7.606-0.15
			c-3.381-0.102-5.917-0.152-7.606-0.152c-0.652,0-0.966,0.291-0.942,0.871l0.036,0.531c0.217,4.012,0.35,7.029,0.398,9.047
			c0.29,7.85,0.435,13.213,0.435,16.09c0,2.828-0.151,7.074-0.453,12.74c-0.302,5.666-0.453,9.912-0.453,12.738
			c0,0.732,0.398,1.098,1.195,1.098c1.762,0,4.418-0.049,7.968-0.15c3.549-0.102,6.205-0.152,7.968-0.152
			c6.229,0,10.83,0.227,13.799,0.682C305.064,649.836,305.523,649.887,305.765,649.887z"/>
		<path fill="#F5CC1A" d="M368.496,630.086c3.066-3.559,4.602-8.303,4.602-14.234c0-5.578-1.68-10.223-5.035-13.932
			c-3.43-3.785-7.811-5.68-13.147-5.68c-1.136,0-2.838,0.051-5.107,0.152c-2.27,0.102-3.973,0.15-5.107,0.15
			c-1.328,0-3.302-0.012-5.922-0.037s-4.582-0.037-5.885-0.037c-0.652,0-0.966,0.277-0.942,0.832l0.036,0.568
			c0.555,9.035,0.833,17.49,0.833,25.365c0,2.775-0.115,6.941-0.344,12.492c-0.23,5.553-0.344,9.705-0.344,12.455
			c0,0.783,0.302,1.174,0.905,1.174c0.411,0,1.038-0.037,1.883-0.113s1.485-0.113,1.92-0.113c0.507,0,1.273,0.057,2.3,0.17
			c1.026,0.113,1.793,0.17,2.3,0.17c0.458,0,0.688-0.213,0.688-0.643c0-1.338-0.079-3.344-0.235-6.02
			c-0.158-2.676-0.235-4.682-0.235-6.02c0-1.035,0.386-1.553,1.159-1.553c1.4,0,3.495,0.057,6.284,0.17
			c2.789,0.115,4.872,0.172,6.248,0.172C360.951,635.576,365.334,633.746,368.496,630.086z M361.326,624.9
			c-1.883,2.195-4.516,3.293-7.897,3.293c-6.036,0-9.719-0.139-11.046-0.416c-0.531-0.127-0.797-0.303-0.797-0.531
			c0-1.059-0.03-2.648-0.09-4.77c-0.061-2.119-0.091-3.709-0.091-4.77c0-8.379,0.084-12.721,0.254-13.023
			c0.096-0.201,1.774-0.404,5.034-0.605c2.85-0.203,4.829-0.303,5.939-0.303c3.575,0,6.375,1.186,8.405,3.559
			c1.955,2.271,2.932,5.299,2.932,9.086C363.969,619.979,363.088,622.805,361.326,624.9z"/>
		<path fill="#F5CC1A" d="M401.492,650.529c7.1,0,13.039-2.801,17.82-8.404c4.588-5.4,6.883-11.85,6.883-19.346
			s-2.307-13.943-6.918-19.346c-4.781-5.627-10.711-8.441-17.785-8.441c-7.051,0-12.967,2.814-17.748,8.441
			c-4.635,5.428-6.953,11.875-6.953,19.346c0,7.547,2.293,14.008,6.881,19.383C388.43,647.74,394.369,650.529,401.492,650.529z
			 M389.902,609.832c3.066-3.938,6.906-5.906,11.518-5.906c4.66,0,8.535,1.943,11.627,5.83c2.945,3.66,4.418,7.963,4.418,12.91
			c0,4.998-1.461,9.338-4.383,13.023c-3.09,3.938-6.979,5.906-11.662,5.906c-4.611,0-8.451-1.969-11.518-5.906
			c-2.898-3.686-4.346-7.988-4.346-12.91C385.557,617.834,387.004,613.518,389.902,609.832z"/>
		<path fill="#F5CC1A" d="M432.135,648.484c0,0.582,0.301,0.871,0.904,0.871c0.436,0,1.082-0.037,1.939-0.113
			c0.855-0.076,1.502-0.113,1.938-0.113c0.457,0,1.146,0.037,2.064,0.113c0.916,0.076,1.605,0.113,2.064,0.113
			c0.604,0,0.904-0.416,0.904-1.248c0-2.297-0.078-5.756-0.234-10.373c-0.158-4.619-0.236-8.09-0.236-10.412
			c0-0.781,1.521-1.174,4.564-1.174c1.328,0,2.137,0.014,2.426,0.039c0.967,0.074,1.813,0.744,2.535,2.006
			c0.121,0.227,0.592,1.313,1.414,3.256c0.82,2.02,2.475,5.301,4.961,9.844c2.945,5.375,4.77,8.063,5.471,8.063h8.33
			c0.699,0,1.051-0.592,1.051-1.779c0-0.252-0.061-0.492-0.182-0.719c-2.729-4.037-4.854-7.029-6.375-8.973
			c-1.377-2.119-2.91-4.934-4.6-8.441c-1.957-4.064-2.934-6.322-2.934-6.777c0-0.43,0.289-0.908,0.869-1.439
			c2.27-2.221,4.092-4.428,5.469-6.625c2.076-3.23,3.768-6.965,5.07-11.205c1.111-3.635,1.666-5.68,1.666-6.133
			c0-0.783-1.328-1.174-3.984-1.174c-2.172,0-3.453,0.051-3.838,0.15c-0.58,0.152-0.955,0.443-1.123,0.871
			c-1.209,3.383-2.416,6.764-3.623,10.146c-1.666,4.316-3.428,7.281-5.287,8.896c-2.174,1.816-5.602,2.727-10.287,2.727
			c-0.797,0-1.291-0.229-1.484-0.682c-0.121-0.252-0.182-0.871-0.182-1.855c0-2.17,0.066-5.414,0.199-9.73
			c0.133-4.314,0.199-7.545,0.199-9.691c0-0.453-0.277-0.682-0.832-0.682c-0.436,0-1.088,0.039-1.957,0.115
			c-0.869,0.074-1.521,0.113-1.955,0.113c-0.459,0-1.135-0.039-2.029-0.113c-0.893-0.076-1.557-0.115-1.992-0.115
			c-0.604,0-0.904,0.279-0.904,0.834c0,2.928,0.127,7.326,0.381,13.193c0.252,5.867,0.379,10.266,0.379,13.193
			c0,2.777-0.127,6.947-0.379,12.512C432.262,641.539,432.135,645.709,432.135,648.484z"/>
		<path fill="#F5CC1A" d="M492.404,596.543c-1.691,0-4.227-0.049-7.607-0.15s-5.916-0.152-7.605-0.152
			c-0.652,0-0.967,0.291-0.941,0.871l0.035,0.531c0.219,4.012,0.35,7.029,0.398,9.047c0.291,7.85,0.436,13.213,0.436,16.09
			c0,2.828-0.152,7.074-0.453,12.74c-0.242,4.525-0.385,8.13-0.434,10.844c3.371-2.938,6.464-5.947,9.294-9.018
			c-0.023-0.399-0.04-0.817-0.04-1.277v-5.604c0-2.121-0.014-3.092-0.037-2.916c0.145-0.984,0.699-1.514,1.666-1.59
			c1.059-0.1,3.568-0.15,7.525-0.15c1.705-2.571,3.224-5.179,4.546-7.819c-2.849,0.088-5.922,0.134-9.245,0.134
			c-0.268,0-0.678,0-1.232,0c-0.531,0.025-0.941,0.037-1.232,0.037c-1.037,0-1.666-0.391-1.883-1.174
			c-0.072-0.252-0.107-1.146-0.107-2.688v-5.641c0-2.195,0.258-3.57,0.777-4.127c0.52-0.555,1.77-0.832,3.75-0.832
			c2.1,0,5.232,0.119,9.398,0.359c1.798,0.104,3.387,0.184,4.792,0.242c0.621-2.658,1.034-5.343,1.26-8.05
			c-1.501,0.021-3.431,0.067-5.798,0.142C496.441,596.494,494.021,596.543,492.404,596.543z"/>
		<path fill="#F5CC1A" d="M289.823,670.709c0-0.379,0-0.561,0-0.547c-0.037-0.156-0.187-0.234-0.448-0.234
			c-0.237,0-0.585,0.02-1.045,0.059s-0.802,0.059-1.026,0.059c-0.249,0-0.619-0.02-1.11-0.059c-0.492-0.039-0.862-0.059-1.11-0.059
			c-0.1,0-0.149,0.098-0.149,0.293c0,1.053,0.056,2.641,0.168,4.76c0.112,2.119,0.168,3.713,0.168,4.779
			c0,0.676-1.226,3.635-3.676,8.875c-0.809,1.729-1.25,2.594-1.325,2.594c-0.037-0.039-0.063-0.084-0.075-0.137
			c-0.448-1.066-0.771-1.885-0.97-2.457c-1.841-5.059-2.781-7.914-2.818-8.564c-0.013-0.285-0.019-1.098-0.019-2.438
			c0-0.818,0.025-2.051,0.075-3.697c0.05-1.645,0.075-2.877,0.075-3.695c0-0.209-0.143-0.313-0.429-0.313
			c-0.211,0-0.529,0.02-0.952,0.059c-0.423,0.039-0.74,0.059-0.952,0.059c-0.249,0-0.61-0.02-1.083-0.059
			c-0.473-0.039-0.828-0.059-1.064-0.059c-0.261,0-0.392,0.098-0.392,0.293c0,0.768,0.021,1.914,0.065,3.443
			c0.043,1.527,0.065,2.676,0.065,3.441c0,1.73-0.019,2.758-0.056,3.082c-0.946,3.227-1.866,6.105-2.762,8.643
			c-0.485,1.365-0.803,2.197-0.952,2.496c-0.038,0.078-0.069,0.123-0.093,0.137c-0.075,0-0.529-0.885-1.362-2.652
			c-2.514-5.346-3.77-8.35-3.77-9.012c0-1.055,0.059-2.645,0.177-4.77c0.118-2.127,0.177-3.717,0.177-4.77
			c0-0.195-0.13-0.293-0.392-0.293c-0.212,0-0.529,0.014-0.952,0.039s-0.74,0.039-0.952,0.039c-0.224,0-0.563-0.02-1.017-0.059
			s-0.793-0.059-1.017-0.059c-0.311,0-0.466,0.117-0.466,0.352c0,1.066-0.031,2.672-0.093,4.818
			c-0.063,2.145-0.094,3.752-0.094,4.818c0,0.389,1.188,3.172,3.564,8.348c1.717,3.785,3.005,6.619,3.863,8.506
			c0.162,0.35,0.336,0.525,0.522,0.525h3.341c0.236,0,0.423-0.176,0.56-0.525c1.816-4.734,3.154-8.297,4.013-10.689
			c1.729,4.863,3.054,8.426,3.975,10.689c0.149,0.35,0.342,0.525,0.578,0.525h3.359c0.174,0,0.342-0.176,0.504-0.525
			c1.717-3.771,2.992-6.607,3.826-8.506c2.488-5.461,3.732-8.244,3.732-8.348c0-1.027-0.031-2.563-0.093-4.604
			C289.854,673.27,289.823,671.736,289.823,670.709z"/>
		<path fill="#F5CC1A" d="M297.885,683.426c0-1.455,0.049-3.641,0.149-6.553c0.1-2.914,0.149-5.098,0.149-6.555
			c0-0.26-0.162-0.391-0.485-0.391c-0.224,0-0.56,0.02-1.008,0.059c-0.448,0.039-0.784,0.059-1.008,0.059
			c-0.249,0-0.616-0.02-1.101-0.059c-0.485-0.039-0.846-0.059-1.083-0.059c-0.286,0-0.429,0.162-0.429,0.488
			c0,1.443,0.065,3.611,0.196,6.504c0.131,2.895,0.196,5.063,0.196,6.506c0,1.496-0.065,3.736-0.196,6.721
			c-0.13,2.984-0.196,5.219-0.196,6.701c0,0.299,0.155,0.447,0.466,0.447c0.224,0,0.566-0.02,1.027-0.059
			c0.46-0.039,0.809-0.059,1.045-0.059c0.224,0,0.566,0.02,1.026,0.059c0.46,0.039,0.802,0.059,1.026,0.059
			c0.361,0,0.541-0.137,0.541-0.408c0-1.496-0.053-3.74-0.158-6.73C297.938,687.166,297.885,684.922,297.885,683.426z"/>
		<path fill="#F5CC1A" d="M319.393,670.108c0.001,0.006,0.008,0.008,0.009,0.015C319.399,670.104,319.396,670.101,319.393,670.108z"
			/>
		<path fill="#F5CC1A" d="M318.861,669.771c0.018,0,0.025,0.009,0.042,0.01C318.938,669.775,318.93,669.771,318.861,669.771z"/>
		<path fill="#F5CC1A" d="M319.365,672.016c0-1.222,0.009-1.856,0.028-1.907c-0.042-0.209-0.208-0.315-0.49-0.327
			c-0.125,0.022-0.935,0.084-2.449,0.186c-2.824,0.195-4.858,0.293-6.103,0.293c-1.406,0-4.311-0.137-8.715-0.41l-0.224-0.02
			c-0.149,0-0.255,0.084-0.317,0.254c-0.149,0.807-0.237,1.438-0.261,1.893c-0.025,0.104-0.106,0.441-0.243,1.014
			c-0.112,0.441-0.168,0.781-0.168,1.014c0,0.131,0.075,0.195,0.224,0.195c1.493,0,3.844-0.104,7.054-0.313
			c0.137,4.045,0.205,7.225,0.205,9.539c0,1.496-0.059,3.73-0.177,6.701s-0.177,5.199-0.177,6.682c0,0.324,0.155,0.486,0.466,0.486
			c0.224,0,0.566-0.02,1.027-0.059c0.46-0.039,0.802-0.059,1.026-0.059c0.236,0,0.584,0.02,1.045,0.059
			c0.46,0.039,0.803,0.059,1.026,0.059c0.361,0,0.542-0.137,0.542-0.408c0-1.496-0.053-3.74-0.159-6.73
			c-0.106-2.99-0.159-5.234-0.159-6.73c0-2.393,0.056-5.572,0.168-9.539c4.056,0.156,6.258,0.234,6.606,0.234
			c0.224,0,0.336-0.168,0.336-0.506c0-0.184-0.019-0.453-0.056-0.811C319.384,672.447,319.365,672.184,319.365,672.016z"/>
		<path fill="#F5CC1A" d="M344.858,683.953c0-1.508,0.062-3.775,0.187-6.799c0.124-3.023,0.187-5.289,0.187-6.797
			c0-0.287-0.162-0.43-0.485-0.43c-0.224,0-0.56,0.02-1.007,0.059c-0.448,0.039-0.784,0.059-1.008,0.059
			c-0.237,0-0.582-0.02-1.036-0.059s-0.799-0.059-1.036-0.059c-0.286,0-0.429,0.131-0.429,0.391c0,1.092,0.034,2.736,0.103,4.936
			c0.068,2.197,0.103,3.842,0.103,4.934c0,0.482-0.144,0.762-0.429,0.84c-0.374,0.117-2.551,0.176-6.532,0.176
			c-4.068,0-6.258-0.059-6.569-0.176c-0.261-0.078-0.392-0.299-0.392-0.664c0-1.117,0.047-2.799,0.14-5.041
			c0.093-2.244,0.14-3.924,0.14-5.043c0-0.234-0.144-0.352-0.429-0.352c-0.224,0-0.573,0.02-1.045,0.059s-0.821,0.059-1.045,0.059
			c-0.236,0-0.585-0.02-1.045-0.059c-0.46-0.039-0.803-0.059-1.027-0.059c-0.311,0-0.466,0.143-0.466,0.43
			c0,1.508,0.065,3.773,0.196,6.797c0.131,3.023,0.196,5.291,0.196,6.799c0,1.43-0.065,3.58-0.196,6.447
			c-0.13,2.867-0.196,5.016-0.196,6.447c0,0.299,0.155,0.447,0.466,0.447c0.224,0,0.557-0.02,0.999-0.059
			c0.441-0.039,0.774-0.059,0.999-0.059c0.236,0,0.591,0.02,1.064,0.059c0.473,0.039,0.827,0.059,1.063,0.059
			c0.311,0,0.467-0.215,0.467-0.643c0-1.145-0.031-2.867-0.094-5.17c-0.062-2.301-0.093-4.025-0.093-5.17
			c0-0.506,0.137-0.799,0.411-0.877c0.386-0.104,2.538-0.156,6.457-0.156c3.932,0,6.084,0.053,6.458,0.156
			c0.286,0.078,0.429,0.371,0.429,0.877c0,1.172-0.035,2.926-0.103,5.268c-0.068,2.34-0.103,4.096-0.103,5.268
			c0,0.299,0.143,0.447,0.429,0.447c0.236,0,0.594-0.02,1.073-0.059s0.836-0.059,1.073-0.059c0.224,0,0.557,0.02,0.998,0.059
			c0.442,0.039,0.768,0.059,0.98,0.059c0.373,0,0.56-0.148,0.56-0.447c0-1.432-0.069-3.58-0.206-6.447
			S344.858,685.383,344.858,683.953z"/>
		<path fill="#F5CC1A" d="M374.363,686.723c0-0.156,0.117-0.318,0.354-0.488c1.418-1.053,2.389-2.164,2.912-3.334
			c0.496-1.105,0.746-2.621,0.746-4.545c0-2.797-0.922-4.955-2.762-6.477c-1.668-1.379-3.883-2.068-6.645-2.068
			c-1.057,0-2.652,0.029-4.787,0.088c-2.133,0.059-3.734,0.088-4.805,0.088c-0.535,0-0.797,0.131-0.783,0.391l0.018,0.313
			c0.287,4.654,0.43,9.037,0.43,13.146c0,1.443-0.064,3.611-0.195,6.506c-0.131,2.893-0.197,5.061-0.197,6.506
			c0,0.299,0.156,0.447,0.467,0.447c0.211,0,0.535-0.02,0.971-0.059s0.76-0.059,0.971-0.059c0.262,0,0.645,0.029,1.148,0.088
			s0.879,0.088,1.127,0.088c0.25,0,0.375-0.137,0.375-0.41c0-0.896-0.041-2.252-0.123-4.066c-0.08-1.814-0.121-3.176-0.121-4.086
			c0-0.625,0.131-0.957,0.393-0.996c0.324-0.051,1.344-0.078,3.061-0.078c0.971,0,1.537,0.008,1.699,0.02
			c0.721,0.105,1.174,0.391,1.361,0.859c1.264,3.107,2.183,5.345,2.772,6.754c1.613-0.425,3.216-0.856,4.807-1.295
			c-0.276-0.622-0.597-1.335-0.964-2.143C375.105,688.635,374.363,686.904,374.363,686.723z M368.559,683.992
			c-1.369,0-2.645-0.033-3.826-0.098c-0.51-0.039-0.877-0.072-1.102-0.098c-0.123-0.025-0.205-0.053-0.242-0.078v-3.727
			c0-3.055,0.043-4.934,0.131-5.637c0.037-0.338,1.064-0.508,3.08-0.508c2.488,0,4.211,0.293,5.168,0.879
			c1.295,0.793,1.941,2.367,1.941,4.721C373.709,682.477,371.992,683.992,368.559,683.992z"/>
		<path fill="#F5CC1A" d="M386.064,687.563c0-1.094-0.006-1.594-0.02-1.502c0.076-0.508,0.361-0.781,0.859-0.82
			c0.547-0.051,1.848-0.078,3.9-0.078c2.438,0,4.006,0.039,4.703,0.117c0.957,0.092,1.512,0.137,1.66,0.137
			c0.373,0,0.561-0.117,0.561-0.352c0-0.43,0.047-1.072,0.139-1.932c0.094-0.857,0.141-1.494,0.141-1.91
			c0-0.26-0.131-0.377-0.393-0.352c-1.031,0.104-1.928,0.17-2.686,0.195c-1.941,0.09-4.131,0.137-6.57,0.137
			c-0.137,0-0.348,0-0.635,0c-0.273,0.012-0.484,0.02-0.635,0.02c-0.535,0-0.857-0.201-0.969-0.605
			c-0.039-0.129-0.057-0.592-0.057-1.385v-2.906c0-1.131,0.133-1.84,0.4-2.127c0.268-0.285,0.912-0.428,1.932-0.428
			c1.082,0,2.697,0.061,4.844,0.184c2.146,0.125,3.748,0.186,4.805,0.186c0.273,0,0.41-0.148,0.41-0.447
			c0-0.416-0.129-1.482-0.391-3.199c-0.051-0.377-0.367-0.566-0.953-0.566c-0.832,0-2.08,0.025-3.74,0.078
			c-1.662,0.053-2.908,0.078-3.742,0.078c-0.871,0-2.178-0.025-3.92-0.078s-3.047-0.078-3.918-0.078
			c-0.336,0-0.498,0.15-0.486,0.449l0.02,0.273c0.111,2.066,0.18,3.621,0.205,4.662c0.148,4.043,0.225,6.807,0.225,8.289
			c0,1.457-0.078,3.645-0.234,6.564c-0.056,1.033-0.1,1.969-0.136,2.818c1.596-0.457,3.181-0.92,4.753-1.392
			c-0.043-0.334-0.072-0.701-0.072-1.144V687.563z"/>
		<path fill="#F5CC1A" d="M414.506,669.439c-0.213,0-0.545,0.037-1,0.107c-0.453,0.072-0.793,0.107-1.016,0.107
			c-0.236,0-0.586-0.031-1.045-0.098c-0.461-0.064-0.811-0.098-1.047-0.098c-0.174,0-0.336,0.248-0.484,0.742
			c-0.598,1.678-1.07,2.932-1.418,3.764c-1.953,5.021-3.123,8.057-3.508,9.109l-0.926,2.646c1.755-0.625,3.49-1.259,5.208-1.902
			c0.639-1.799,1.66-4.571,3.069-8.331c0.449,0.912,1.213,2.822,2.295,5.736c0.061,0.163,0.113,0.308,0.171,0.463
			c1.315-0.521,2.62-1.045,3.912-1.577c-2.224-5.962-3.475-9.282-3.747-9.946C414.771,669.682,414.617,669.439,414.506,669.439z"/>
		<path fill="#F5CC1A" d="M429.436,673.654c-0.62,0.781-1.14,1.624-1.579,2.517c4.661-2.105,9.147-4.287,13.453-6.539
			c-0.904-0.2-1.866-0.31-2.897-0.31C434.691,669.322,431.699,670.766,429.436,673.654z"/>
	</g>
</g>
</svg>
